<?xml version="1.0" standalone="no"?>
<!DOCTYPE svg PUBLIC "-//W3C//DTD SVG 1.1//EN" "http://www.w3.org/Graphics/SVG/1.1/DTD/svg11.dtd" >
<svg xmlns="http://www.w3.org/2000/svg">
<metadata></metadata>
<defs>
<font id="vtcgaragesaleregular" horiz-adv-x="1011" >
<font-face units-per-em="2048" ascent="1638" descent="-410" />
<missing-glyph horiz-adv-x="409" />
<glyph horiz-adv-x="0" />
<glyph unicode="&#xd;" horiz-adv-x="409" />
<glyph horiz-adv-x="0" />
<glyph horiz-adv-x="0" />
<glyph unicode=" "  horiz-adv-x="409" />
<glyph unicode="&#x09;" horiz-adv-x="409" />
<glyph unicode="&#xa0;" horiz-adv-x="409" />
<glyph unicode="!" horiz-adv-x="505" d="M6 94q0 59 47 93t107 34q47 0 85 -23.5t38 -78.5q0 -29 -14.5 -53.5t-37 -42t-51 -27.5t-55.5 -10q-47 0 -83 26.5t-36 81.5zM90 324q-2 12 5 83.5t18.5 173t25 219.5t23.5 223t16 184t4 104q74 -12 159 -43t159 -56q-37 -115 -68 -224t-56.5 -219t-50 -219.5 t-51.5 -221.5z" />
<glyph unicode="&#x22;" horiz-adv-x="567" d="M8 1452q-2 55 2 78q23 2 57.5 3t73.5 1q35 0 69 -2t58 -6l-129 -418q-2 -4 -3 -4t-9 2t-29.5 6t-64.5 8q-4 31 -9.5 91.5t-9.5 123t-6 117.5zM301 1450q-2 55 2 78q23 2 57.5 3t73.5 1q35 0 69 -2t58 -6l-129 -418q-2 -4 -3 -4t-9 2t-29.5 6t-64.5 8q-4 31 -9.5 91.5 t-9.5 123t-6 117.5z" />
<glyph unicode="#" horiz-adv-x="1001" d="M6 524q0 23 1 43.5t3 32.5l101 4q8 0 8 16.5v28.5h-99q-4 20 -5 43t-1 47q0 45 2 90t4 80q18 8 58.5 6t60.5 0q4 14 6 33t2 41q0 37 -2 73t2 52q47 0 96.5 2t102.5 2q27 0 54.5 -1t56.5 -3q2 -23 -2 -60.5t-4 -95.5l61 -2q2 14 5 36t4 44.5t2 43t1 32.5q8 0 23.5 1 t49.5 2t96.5 2t166.5 1q2 -12 2 -36.5t-2 -51t-2 -48t4 -26.5h63.5h39t20.5 -1t8 -5q0 -63 -1 -126.5t-11 -129.5q-47 0 -77 1t-47 1h-24.5t-9.5 -2q0 -10 -4 -31.5t4 -29.5q20 0 39 1t51 -1q0 -57 -4 -124t-18 -128q-29 -4 -45.5 -3t-44.5 -3q-10 -29 -7 -69t-10 -81h-256 q0 16 -2 38t-3 43.5t-3 40t-2 30.5q-4 4 -20.5 5t-38 1t-41 -2t-27.5 -2q-10 -16 -13 -41t-5 -51.5t-3 -49t-5 -32.5h-209q-2 16 -3 41.5t-1 52.5t-2.5 48.5t-4.5 31.5l-133 2q-2 0 -4 47t-2 96zM422 644q0 -15 1 -27.5t3 -14.5q35 0 57.5 -1t38.5 3q4 23 2 50.5t-2 43.5 q-16 -2 -48 -2t-48 -4q-4 -4 -4 -18.5v-29.5z" />
<glyph unicode="$" horiz-adv-x="927" d="M6 246q37 80 58.5 126t35 69.5t20.5 29.5t11 6q20 -10 47 -35.5t53 -25.5q6 0 18.5 23.5t24 54t19.5 60.5t8 44q-74 53 -126 134t-52 179q0 63 22 121q23 55 61 102.5t86 80t105.5 49t118.5 12.5q6 0 13.5 22.5t15.5 54t16 63.5t17 50q8 0 53 -12t95 -28.5t90 -36 t40 -31.5q-10 -39 -26.5 -71t-26.5 -66q23 -20 56.5 -38t62.5 -63q-6 -14 -22.5 -51t-35 -77t-36 -73.5t-27.5 -39.5q-29 0 -60.5 20.5t-60.5 20.5q-6 0 -14.5 -19.5t-15.5 -45.5t-13 -48.5t-6 -28.5q66 -53 107.5 -126.5t41.5 -170.5q0 -82 -29.5 -155.5t-81 -132 t-123 -96.5t-153.5 -50q-16 -29 -21 -60.5t-28 -72.5q-16 0 -47 6t-64.5 15.5t-63.5 22t-44 26.5q10 35 15 56t5 50q-10 10 -29.5 25.5t-42 36t-42 44t-25.5 50.5zM387 905.5q2 -24.5 31 -28.5q16 29 23.5 58.5t17.5 45.5q-14 20 -32.5 8t-30 -35.5t-9.5 -48zM487 340 q27 0 41.5 15.5t18.5 35.5q4 23 -1.5 42.5t-17.5 21.5q-6 -10 -13 -26.5t-13 -33t-10.5 -32t-4.5 -23.5z" />
<glyph unicode="%" horiz-adv-x="1169" d="M6 1006q0 68 22.5 122t59.5 91.5t85 57t99 19.5q41 0 80 -13t69 -41t47 -73t17 -108q0 -68 -24.5 -123t-63.5 -96t-88 -63.5t-96 -22.5q-84 0 -145.5 61.5t-61.5 188.5zM156 1010q0 -53 27.5 -76t62.5 -23q37 0 71.5 40t34.5 102q0 43 -21.5 62.5t-49.5 19.5 q-43 0 -84 -35t-41 -90zM158 135q63 150 138 302.5t151.5 305t153.5 302t147 292.5q14 -6 60 -21.5t97 -35.5t95 -40.5t59 -35.5q10 8 -14.5 -44t-103.5 -190.5t-221 -375t-370 -596.5q-12 4 -39.5 20.5t-57.5 38t-56.5 43t-38.5 35.5zM684 283q0 68 22.5 122t59.5 92t85 57 t99 19q41 0 80 -13t68.5 -40.5t47 -73t17.5 -108.5q0 -68 -24.5 -123t-63.5 -96t-88 -63.5t-96 -22.5q-84 0 -145.5 61.5t-61.5 188.5zM827 281q0 -53 28 -76t65 -23t71.5 40t34.5 102q0 45 -21.5 63.5t-50.5 18.5q-43 0 -85 -35t-42 -90z" />
<glyph unicode="&#x26;" horiz-adv-x="862" d="M6 299q0 55 16.5 112.5t42 110.5t57.5 104.5t62 94.5q-31 63 -46 127.5t-15 126.5q0 61 16.5 115.5t49 93.5t83 60.5t117.5 17.5q109 -6 160 -82t51 -181q0 -78 -26.5 -160.5t-79.5 -154.5q0 -18 4 -47t18 -45q45 45 103.5 73.5t121.5 28.5t115 -32q0 -51 -23.5 -118 t-60.5 -116q-23 8 -50.5 2t-51 -24.5t-38 -49t-9.5 -73.5q6 -37 18 -65t27.5 -53.5t32 -50t28.5 -55.5q-2 -16 -22.5 -37.5t-49 -43t-60.5 -40t-54 -26.5q-10 14 -21.5 35.5t-24 43t-24.5 42.5t-22 33q-111 -74 -207 -74q-104 0 -171 80t-67 227zM256 332q0 -29 10 -48.5 t37 -23.5q29 -4 57 51q-10 39 -25.5 75t-31.5 75q-16 -10 -31.5 -49t-15.5 -80zM355 939q1 -17 7.5 -33.5t12.5 -22.5q10 0 17 16t10.5 36.5t-1 37t-18.5 14.5q-18 -2 -23.5 -16.5t-4.5 -31.5z" />
<glyph unicode="'" horiz-adv-x="274" d="M8 1452q-2 55 2 78q23 2 57.5 3t73.5 1q35 0 69 -2t58 -6l-129 -418q-2 -4 -3 -4t-9 2t-29.5 6t-64.5 8q-4 31 -9.5 91.5t-9.5 123t-6 117.5z" />
<glyph unicode="(" horiz-adv-x="507" d="M8 459q8 236 97.5 451.5t263.5 381.5q18 -2 38.5 -20.5t39 -43t34 -51t21.5 -42.5q-53 -63 -99.5 -139t-82 -161t-56 -173.5t-20.5 -176.5q0 -102 31.5 -197t107.5 -173q-16 -47 -51 -88t-76 -64q-61 27 -108.5 85t-79 129t-47 146t-13.5 136z" />
<glyph unicode=")" horiz-adv-x="442" d="M6 98q41 61 78 133t63.5 150t42 159t15.5 160q0 123 -41 232.5t-137 193.5q12 47 42.5 92.5t69.5 69.5q63 -20 116.5 -73.5t91.5 -121t59.5 -140.5t25.5 -134q2 -23 3 -46t1 -46q0 -211 -69.5 -409.5t-210.5 -362.5q-18 0 -41 16.5t-43.5 40t-39 47t-26.5 39.5z" />
<glyph unicode="*" horiz-adv-x="686" d="M6 1192q0 14 13.5 42t33 57.5t41 52t37.5 26.5q31 -12 56.5 -35.5t54.5 -40.5l-2 123q10 10 57 12.5t96 2.5q37 0 68 -1t43 -1q2 -4 2 -22.5t-3 -41.5t-5 -44.5t-2 -31.5q25 10 56.5 37t59.5 37q20 -14 32.5 -42t20 -61.5t10.5 -71.5t5 -73q-10 -10 -29.5 -19.5 t-42 -17.5t-44 -15t-34.5 -15q16 -27 39 -45.5t47 -59.5q-4 -10 -13 -26.5t-22.5 -32t-27.5 -26.5t-27 -11q-29 12 -60.5 36.5t-55.5 33.5q-4 -8 -9.5 -29t-9.5 -42.5t-7 -38.5t-3 -20q-20 -8 -70 -8q-23 0 -45 3t-37 14q-6 33 -5 58t-9 50q-20 0 -44 -15.5t-44 -15.5 q-10 4 -23.5 18.5t-25.5 32t-20.5 35t-8.5 29.5q2 8 15.5 20.5t29 26t30.5 24.5t21 17q-16 18 -35.5 31.5t-39 26t-37 26t-27.5 31.5z" />
<glyph unicode="+" horiz-adv-x="989" d="M6 446q0 12 1 29t1 37q0 41 -1 89t-1 95t1 84t5 54h250q6 20 6 63q0 53 -5 120.5t-1 121.5q20 0 49 2t79 5t130 5t207 2q2 -20 2 -63v-90.5t1 -92.5t1 -71l250 2q0 -14 1 -28.5t1 -31.5q0 -72 -5 -155.5t-9 -161.5q-10 -4 -47 -5t-80 -2t-81 -2t-48 -3q-6 -37 -6 -105 q0 -41 1 -92t3 -115q-8 -8 -164 -8h-277q-6 33 -8 70t-2 73q0 59 3 109.5t-1 71.5z" />
<glyph unicode="," horiz-adv-x="274" d="M8 172q-2 55 2 78q23 2 57.5 3t73.5 1q35 0 69 -2t58 -6l-129 -418q-2 -4 -3 -4t-9 2t-29.5 6t-64.5 8q-4 31 -9.5 91.5t-9.5 123t-6 117.5z" />
<glyph unicode="-" horiz-adv-x="636" d="M6 496v170v84q25 4 106 8t177 4q98 0 191 -5t147 -18q2 -14 3 -40.5t1 -59.5q0 -43 -3 -86t-12 -66h-237q-90 0 -182.5 1t-190.5 8z" />
<glyph unicode="." horiz-adv-x="288" d="M6 94q0 59 47 93t107 34q47 0 85 -23.5t38 -78.5q0 -29 -14.5 -53.5t-37 -42t-51 -27.5t-55.5 -10q-47 0 -83 26.5t-36 81.5z" />
<glyph unicode="/" horiz-adv-x="917" d="M6 113q63 150 138 302t152 304.5t153.5 302t146.5 293.5q14 -6 60 -21.5t97.5 -36t95.5 -41t58 -34.5q10 8 -14.5 -44.5t-103 -190.5t-221 -374.5t-369.5 -597.5q-12 4 -40 20.5t-57.5 38t-56.5 43.5t-39 36z" />
<glyph unicode="0" horiz-adv-x="776" d="M8 641q2 129 25.5 251t73 215t128 148.5t193.5 51.5q96 -4 161.5 -49.5t105.5 -119t57.5 -169t17.5 -197.5q0 -39 -2 -77t-6 -77q-12 -123 -47 -239.5t-87.5 -206.5t-121 -145.5t-148.5 -55.5q-96 0 -162.5 58.5t-109.5 152.5t-61.5 214t-16.5 245zM293 631 q0 -51 5 -99.5t14.5 -85t23.5 -60.5t33 -26q18 -2 33.5 26t25.5 74t16.5 103.5t6.5 114.5q0 23 1 44t1 42q0 70 -10.5 119t-49.5 49q-27 0 -46 -25.5t-31.5 -68.5t-17.5 -97.5t-5 -109.5z" />
<glyph unicode="1" horiz-adv-x="727" d="M6 969q102 100 158.5 157.5t84 85t39 33.5t23.5 6q14 0 41 -2t72 -4t111.5 -4t162.5 -2q-8 -104 -25.5 -223t-36 -238t-32.5 -227.5t-14 -190.5q23 -6 62.5 -3t68.5 -7q0 -86 -7 -171t-14 -179q-141 -10 -304 -10t-341 -4q0 37 -1 76.5t-1 82.5q0 49 2 100.5t8 100.5 q53 0 89 -2t77 -2q10 86 23.5 205t11.5 229q-10 0 -28.5 -14t-49.5 -29q-14 12 -43.5 42t-59.5 64.5t-53.5 69.5t-23.5 60z" />
<glyph unicode="2" horiz-adv-x="813" d="M6 807q4 86 41 169t96.5 148.5t137 106.5t168.5 41q170 0 264 -92.5t94 -245.5q0 -37 -5 -77t-18 -81q-29 -102 -88 -217t-164 -231l166 12q-6 -47 1.5 -111.5t7.5 -134.5q0 -53 -9 -94q-16 2 -36.5 3t-45.5 1q-68 0 -153.5 -5t-165.5 -11t-140.5 -8.5t-74.5 4.5 q-2 111 -7 175t-8.5 99t-3.5 46t9 18q51 33 123.5 85t139 117.5t113 141t46.5 157.5q0 55 -20.5 79t-49.5 24q-39 0 -75 -36t-32 -89h-225q-45 0 -63.5 1t-22.5 5z" />
<glyph unicode="3" horiz-adv-x="835" d="M8 383q55 6 101.5 8t83.5 2h100q-6 -23 1 -41t21.5 -32.5t34 -22.5t37.5 -8q29 0 47.5 20.5t11.5 71.5q-4 33 -19 50.5t-36.5 25.5t-49.5 10t-54 2q-8 80 -9.5 121t-1.5 59q0 23 3 23q33 4 76.5 24.5t81.5 53t62.5 72.5t18.5 83q-4 41 -23.5 58.5t-41.5 17.5 q-39 0 -71 -36t-22 -81l-278 -18q-14 37 -14 82q0 61 27.5 122.5t72.5 110.5t104.5 83t122.5 42q78 10 152 -7t132 -58t98 -102.5t50 -141.5q6 -55 -9 -109.5t-44 -103.5t-65.5 -90t-73.5 -68q66 -47 96.5 -109.5t30.5 -129.5q0 -63 -23.5 -125t-66.5 -113t-102.5 -86 t-129.5 -43q-18 -4 -35.5 -4h-33.5q-164 0 -265.5 100.5t-97.5 286.5z" />
<glyph unicode="4" horiz-adv-x="995" d="M6 1276q33 6 72 6q51 0 108.5 -5t110.5 -5h36.5t35.5 4q2 -51 -2.5 -116.5t-11.5 -135.5t-12 -136.5t-1 -117.5l117 8q8 29 11 95.5t5 140t3 140.5t5 95q0 2 95.5 14.5t310.5 12.5q0 -49 -4 -99.5t-8.5 -105.5t-8.5 -117.5t-4 -138.5q20 -6 33.5 -6h26t26 -1t31.5 -7 q6 -2 6 -36t-2 -79t-4 -92t0 -78q-14 0 -41 -2t-55.5 -5t-55 -8t-38.5 -12v-225t-5 -231q-14 -10 -39.5 -13.5t-58.5 -3.5q-31 0 -63.5 2t-63.5 3.5t-58.5 1t-47.5 -2.5q-10 53 -14.5 119t-7.5 129.5t-4 119.5t-5 93q-129 0 -206 -3t-119 -5t-56 -1t-18 9q-4 63 -8.5 137 t-6.5 167.5t-3 213t-1 277.5z" />
<glyph unicode="5" horiz-adv-x="835" d="M8 393q57 10 147.5 13.5t178.5 3.5q6 -16 8 -36t8 -37.5t21.5 -28.5t50.5 -11q47 2 59.5 27.5t12.5 62.5q0 47 -26 74.5t-66 43t-88 20.5t-95 5q-53 0 -97 -3t-61 1q-12 334 -12 514q0 123 3 169t5 18q61 6 153.5 14t197 15.5t212 12.5t199.5 5l10 -393 q-18 -14 -55 -18.5t-82 -4.5q-43 0 -88 2t-86 2q-4 49 -16.5 69.5t-28.5 20.5q-23 0 -42 -28.5t-19 -63.5q0 -37 26 -63q176 16 272.5 -73t112.5 -253q8 -88 -15.5 -167t-70.5 -141.5t-113.5 -105.5t-142.5 -59q-18 -4 -36.5 -6t-36.5 -2q-78 0 -153 29.5t-133.5 83t-91 127 t-22.5 161.5z" />
<glyph unicode="6" horiz-adv-x="706" d="M6 410q0 92 19.5 206.5t52.5 233.5t75 229.5t87 196.5q20 0 64 5t118 5q37 0 80 -2t96 -8q-29 -57 -66.5 -120.5t-73.5 -130.5t-63.5 -136.5t-34.5 -138.5q33 8 74 8q53 0 101.5 -18.5t85 -56.5t58 -95.5t21.5 -134.5q0 -76 -24.5 -159t-71.5 -151.5t-117.5 -113.5 t-162.5 -45q-86 0 -146.5 41t-98.5 104.5t-55.5 138t-17.5 142.5zM303 348q0 -29 11.5 -42t45.5 -13q37 0 52.5 26.5t15.5 59.5q0 29 -10 45t-39 16q-37 0 -56.5 -29.5t-19.5 -62.5z" />
<glyph unicode="7" horiz-adv-x="720" d="M6 0q47 115 90 230.5t81 221t68.5 194.5t51 152.5t28 95.5t1.5 21q-59 8 -133 -4t-150 -22q-6 84 -13 161.5t-11.5 135t-2.5 86t17 14.5q74 -6 157.5 -13t171 -11.5t175.5 -6.5t170 -2q8 -41 8 -98q0 -47 -3 -98t-3 -111v-36.5t2 -39.5q-59 -86 -114.5 -204.5 t-103 -241.5t-87 -236.5t-68.5 -191.5q-35 -4 -77 -2t-87 4t-89 3t-79 -1z" />
<glyph unicode="8" horiz-adv-x="708" d="M6 334q0 86 40 170t128 143q-63 59 -93 133t-30 150q0 63 21.5 124.5t61.5 110.5t99.5 83t133.5 44q86 10 149.5 -15.5t104.5 -73.5t61 -113.5t20 -135.5q0 -94 -35.5 -179t-105.5 -132q59 -55 90 -130t31 -153q0 -63 -20.5 -123.5t-60.5 -109.5t-99.5 -83t-139.5 -44 q-84 -10 -149.5 14.5t-111.5 71.5t-70.5 112.5t-24.5 135.5zM311 338q0 -25 16.5 -42t49.5 -13q41 4 58.5 25.5t17.5 43.5q0 27 -20.5 45.5t-55.5 14.5q-33 -4 -49.5 -27t-16.5 -47zM348 915q0 -25 18.5 -44t53.5 -15q27 4 41 25.5t14 44.5q0 27 -18.5 47t-57.5 8 q-27 -8 -39 -26.5t-12 -39.5z" />
<glyph unicode="9" horiz-adv-x="743" d="M6 842q0 113 45 194.5t120 133t171 76t197 24.5q98 0 198 -23l-127 -948q12 -8 20.5 -10t16.5 -2h18.5t22.5 -4q0 -27 -4 -53.5t-10 -58.5t-12.5 -74t-10.5 -97q-57 -10 -149 -15t-178 -5q-70 0 -121.5 5t-61.5 15q0 14 -1 45t-1 66.5t-1 74.5t-1 72v44.5t2 31.5 q23 0 40.5 -1t35.5 -2t39.5 -1t52.5 2l-2 174q-59 -4 -113.5 24.5t-95.5 77.5t-65.5 110.5t-24.5 123.5zM319 858q0 -25 14.5 -45t49.5 -25q6 43 9.5 85t13.5 77q-39 0 -63 -28.5t-24 -63.5z" />
<glyph unicode=":" horiz-adv-x="307" d="M6 94q0 59 47 93t107 34q47 0 85 -23.5t38 -78.5q0 -29 -14.5 -53.5t-37 -42t-51 -27.5t-55.5 -10q-47 0 -83 26.5t-36 81.5zM25 561q0 59 47 93t106 34q47 0 85 -23.5t38 -78.5q0 -29 -14.5 -53.5t-37 -42t-51 -27.5t-55.5 -10q-47 0 -82.5 26.5t-35.5 81.5z" />
<glyph unicode=";" horiz-adv-x="288" d="M6 561q0 59 47 93t107 34q47 0 85 -23.5t38 -78.5q0 -29 -14.5 -53.5t-37 -42t-51 -27.5t-55.5 -10q-47 0 -83 26.5t-36 81.5zM10 172q-2 55 2 78q23 2 57.5 3t73.5 1q35 0 69 -2t58 -6l-129 -418q-2 -4 -3 -4t-9 2t-29.5 6t-64.5 8q-4 31 -9.5 91.5t-9.5 123t-6 117.5z " />
<glyph unicode="&#x3c;" horiz-adv-x="714" d="M6 680q45 49 131 127t184.5 155.5t193.5 142t159 89.5q10 -70 19 -151.5t16 -186.5q-25 -25 -62 -50.5t-77 -52t-75.5 -52t-58.5 -50.5q23 -18 61 -47t78.5 -61.5t76.5 -64.5t57 -52q-10 -86 -22.5 -175t-22.5 -177q-70 45 -164 120.5t-189.5 161.5t-177.5 171t-127 153z " />
<glyph unicode="=" horiz-adv-x="638" d="M6 713v170v84q25 4 106 8t177 4q98 0 191 -5t147 -18q2 -14 3 -40.5t1 -59.5q0 -43 -3 -86t-12 -65h-237q-90 0 -182.5 1t-190.5 7zM8 354v170v84q25 4 106 8.5t177 4.5q98 0 191 -5.5t147 -17.5q2 -14 3 -41t1 -59q0 -43 -3 -86t-12 -66h-237q-90 0 -182.5 1t-190.5 7z " />
<glyph unicode="&#x3e;" horiz-adv-x="714" d="M6 426q20 20 56 52t77 64.5t79 61.5t61 47q-23 25 -59 50.5t-76 52t-76.5 52t-61.5 50.5q6 104 15.5 186t19.5 152q63 -25 158.5 -89.5t194 -142t184.5 -155.5t131 -127q-45 -68 -127 -153t-177.5 -171t-189.5 -161.5t-164 -120.5q-10 88 -22.5 177t-22.5 175z" />
<glyph unicode="?" horiz-adv-x="724" d="M6 932q0 88 40 159.5t103.5 123t143.5 78t160 24.5q70 -2 120 -29.5t82.5 -70.5t48 -98.5t15.5 -114.5q0 -70 -19.5 -140.5t-56.5 -132t-89 -107.5t-118 -67v-205q-6 -6 -26.5 -9t-49 -5t-63.5 -3t-68 -3q-27 72 -35 165t-24 220q51 2 102.5 13t91 33.5t64.5 61.5t25 99 q0 68 -27 98.5t-59 30.5q-20 0 -39 -11.5t-31 -33t-15 -51t7 -68.5q0 -16 -44 -35.5t-93.5 -37t-87 -28t-27.5 -10.5q-16 41 -23.5 80t-7.5 74zM225 102q0 53 36 97.5t101 44.5q63 0 94 -34t31 -93q0 -27 -9 -53.5t-27.5 -48t-45 -34t-61.5 -8.5q-59 6 -89 44t-30 85z" />
<glyph unicode="@" horiz-adv-x="1150" d="M6 432q0 133 40 280.5t124 271.5t214 205t310 81q119 0 204 -43t140.5 -109.5t81 -145.5t25.5 -153q0 -76 -19.5 -167t-59.5 -182t-98.5 -175t-136 -148.5t-175 -102.5t-212.5 -36q-123 2 -206.5 39t-135 96.5t-74 134t-22.5 154.5zM152 438q0 -27 2 -51.5t6 -48.5 l293 711q20 2 51 6q27 4 64.5 6t90.5 2h45.5t47.5 -2q8 -33 11 -79t9 -126t17.5 -200.5t35.5 -303.5q29 39 55.5 90.5t46 107.5t32 115.5t12.5 116.5q0 63 -17.5 119.5t-56.5 99.5t-104.5 68t-159.5 25q-113 0 -202 -60.5t-151.5 -156t-95 -211t-32.5 -228.5zM182 268 q27 -61 98.5 -88.5t157.5 -27.5q47 0 96.5 8t93.5 23.5t80.5 37t61.5 49.5q-10 0 -30.5 -2t-44 -4t-45 -1t-34.5 7q-2 0 -4 5.5t-5 20.5t-9 42l-16 72q-4 4 -25.5 6t-48.5 2q-35 0 -64.5 -3t-33.5 -9q-16 -37 -30.5 -77t-25.5 -65zM492 612q12 -4 34.5 -4t30.5 8q4 31 -2 72 t-10 68q-6 -10 -15.5 -29.5t-17.5 -42t-14 -42t-6 -30.5z" />
<glyph unicode="A" horiz-adv-x="1019" d="M6 12q78 256 138.5 447.5t104.5 328t74.5 225.5t50 142t30 76.5t14.5 30.5q51 8 135 10t176 6q10 -39 25.5 -128t45 -236.5t79 -356.5t127.5 -487q-12 -10 -57.5 -22.5t-97.5 -24t-98 -17.5t-59 0q-4 2 -8 14.5t-11 41t-17.5 76.5t-28.5 120q-14 4 -49 3t-75 -4t-77 -6 t-53 -5q-12 -25 -24.5 -58.5t-25 -69.5t-23.5 -70t-19 -58q-2 0 -15.5 2t-45.5 6t-84 7t-132 7zM487 541q11 -3 30 -3h10q26 1 36 11q1 10 1 21q0 30 -8 66q-11 50 -15 79q-6 -12 -15.5 -36t-18.5 -50.5t-14.5 -51t-5.5 -36.5z" />
<glyph unicode="B" horiz-adv-x="774" d="M7 207v11q0 31 5 48q18 10 39 6t31 4q6 272 6 555v127q-4 4 -13 5.5t-19.5 -0.5t-19.5 -3.5t-11 1.5q-2 33 -3.5 74.5t-1.5 86.5q0 35 2.5 67t6.5 60q41 10 98 15.5t121 5.5q82 0 167 -13.5t153.5 -45t114.5 -87t52 -141.5v-13q0 -80 -45 -146q-49 -72 -123 -138 q31 -16 66 -43t63.5 -60.5t48 -74.5t21.5 -86q1 -15 1 -29q0 -108 -41 -183q-46 -85 -127 -135t-189.5 -70.5t-225.5 -20.5q-39 0 -76.5 2t-76.5 6q-4 16 -10.5 53t-9.5 80t-4 82zM340 983l4 -131q32 2 56 24q22 20 22 52v6q-2 20 -14.5 31.5t-27.5 17.5q-13 5 -24 5h-4 q-12 -1 -12 -5zM371 469l6 -154q33 2 57 28q21 22 22 57q0 6 -1 12q-2 23 -14.5 37t-28 20t-28.5 6t-13 -6z" />
<glyph unicode="C" horiz-adv-x="716" d="M6 567q0 53 8.5 126t27.5 151t52 154.5t83 137t116.5 98.5t157.5 38q82 0 132 -34t78.5 -89t39 -124t10.5 -138q0 -31 -1 -59.5t-3 -57.5l-218 -8q-4 16 -3 45t-3 56.5t-15 48t-38 20.5q-31 0 -56.5 -40t-45 -94.5t-29.5 -106.5t-10 -77q0 -12 -1 -37.5t-1 -56.5 q0 -35 2 -71.5t8 -67.5t17.5 -51.5t29.5 -22.5q29 -2 36 30t7 73q0 27 -1 51t-1 45q23 0 58.5 -1t75.5 -5t80 -10.5t69 -16.5q2 -20 2 -41q0 -54 -12 -112q-16 -82 -52.5 -153t-98 -117t-149.5 -46q-111 0 -180 48t-107 127t-51.5 180.5t-13.5 207.5z" />
<glyph unicode="D" horiz-adv-x="894" d="M6 229q0 25 1 50.5t3 54.5q27 4 48.5 3t45.5 3v138t-2 152t-5 150.5t-11 139.5q-16 8 -32.5 4t-28.5 0q-4 8 -7.5 30.5t-5.5 52t-2 64.5v68v102q117 25 234 25q125 0 237.5 -30t199.5 -91.5t142.5 -157.5t63.5 -229q2 -16 2 -31.5v-32.5q0 -170 -53.5 -299t-142.5 -217 t-205.5 -133t-241.5 -45q-119 0 -234 39q-2 45 -4 91t-2 99zM389 373q37 12 67.5 44t53 73.5t37 90t18.5 95.5v19q0 33 -5 62q-7 38 -25.5 65.5t-48.5 43.5q-27 14 -66 13h-10z" />
<glyph unicode="E" horiz-adv-x="659" d="M10 8q4 182 7 334t3 281q0 211 -3 361.5t-5 264.5q-5 -1 -5 -2q0 -2 29 -1q42 1 129 4t212 7.5t270 4.5q4 0 5 -12.5t1 -51.5q0 -35 -1 -91t-5 -146h-15t-18.5 1t-29 2t-45.5 1q-55 0 -181 -7q0 -23 -2 -40t0 -52q16 -1 32 -1q32 0 70 3q28 2 54 2t49 -2q4 -10 4 -25.5 v-35.5q0 -31 -2 -68t-3 -72.5t-2 -66.5t1 -47q-20 0 -52 1t-67 1h-45t-43 -4l-4 -238q27 2 62.5 3t73.5 2t75 1t66 3v-304q-11 -3 -48 -3h-21q-54 1 -169 1q-70 0 -162 -2t-215 -6z" />
<glyph unicode="F" horiz-adv-x="866" d="M6 1198q12 2 27.5 4t46.5 5t85 7.5t144 10.5t222.5 13t320.5 17q4 -6 6 -27.5t2 -51.5q0 -33 -2 -70t-5 -71t-6 -57.5t-7 -27.5q-43 -6 -94.5 -9t-103.5 -5t-102.5 -4t-93.5 -6q-4 -29 -4 -54.5t4 -52.5q14 -2 54.5 1t83.5 7t80.5 6.5t50.5 0.5q6 -59 10 -123t4 -142 l-278 -30l8 -564q-20 -2 -58.5 -2h-85.5h-92t-78 -2l-30 916q-2 6 -11.5 6t-23.5 -2t-28.5 -3t-24.5 5q-4 18 -6.5 59t-4.5 89.5t-5 91.5t-5 65z" />
<glyph unicode="G" horiz-adv-x="851" d="M8 670q2 119 44 230.5t113 196.5t163 135q88 48 188 48h8q84 -2 140.5 -35t89 -83t46 -113.5t13.5 -126.5q0 -49 -6 -95q-14 -2 -30.5 -2h-35.5q-49 0 -104 2t-92 2q3 25 3 44.5t-3 34.5q-6 30 -15.5 44.5t-19.5 18.5t-12 4q-63 0 -100.5 -54.5t-56.5 -128t-25.5 -146.5 t-6.5 -109q0 -16 5 -64.5t19.5 -98.5t39 -89t63.5 -39q18 0 31.5 16.5t20 38t7.5 44t-3 34.5q-18 4 -36 2t-34 0q-8 23 -12 74t-4 98q0 23 1 41t3 29q10 4 52 7t96 6t112.5 4t101.5 1q33 0 53.5 -1t20.5 -3l-10 -246q-25 -8 -39.5 -5t-46.5 -3q-8 -59 -12.5 -121.5 t-14.5 -128.5q-6 -35 -39 -58.5t-76 -37.5t-86.5 -20.5t-70.5 -6.5q-135 0 -222.5 61.5t-137.5 158t-67 212.5q-16 105 -16 205v23z" />
<glyph unicode="H" horiz-adv-x="802" d="M6 1303q18 2 59 4t89.5 2t95.5 1t78 1q2 -20 3 -41t1 -43q0 -82 -6.5 -174t-6.5 -176v-40t3 -36q8 -2 29.5 -4t45 -3t42 0t20.5 5q8 61 10 125.5t3 127t2 122t7 110.5q74 -4 156 -11t160 -22q-4 -135 -15.5 -300t-25 -332.5t-22.5 -325.5q-7 -129 -7 -235v-46 q-16 -2 -36.5 -2h-43.5q-55 0 -114.5 2t-100.5 6q0 25 1 76t2 112.5t3 124t4 111.5q-28 -2 -58 1q-13 1 -29 1q-21 0 -46 -2q-4 -51 -6 -111.5t-5 -119.5t-4 -114.5t-1 -98.5l-273 6z" />
<glyph unicode="I" horiz-adv-x="768" d="M6 961.5v35.5q0 31 1 67t1 69.5t1 62.5t1 43h131q41 0 91.5 1t121 3t167.5 7t233 14q3 -19 3 -55q0 -30 -2 -70q-5 -90 -16 -203q0 -2 -26.5 -2h-59.5h-58.5t-25.5 -2q-6 -43 -10 -124t-6 -173t-3 -183.5t-1 -156.5q49 0 111 3q37 2 66 2q20 0 36 -1v-53t-2 -76t-6 -83 t-11 -73q-72 -4 -140 -5t-136 -1h-201h-116t-125 -4q-2 45 -2 97.5v99.5v61.5t2 42.5l208 -2q4 16 6.5 66.5t2.5 119.5q0 57 -1 123t-2 127.5t-3.5 113.5t-2.5 85q-27 2 -58.5 1t-63 -3t-59 -2t-44.5 2q-2 10 -2 25.5z" />
<glyph unicode="J" horiz-adv-x="841" d="M6 145q14 23 32.5 53.5t38 63.5t38 63.5t35.5 55.5q6 -4 20 -21.5t34.5 -38t44 -36t48.5 -15.5q29 0 49.5 26t32.5 68t17 96t5 113q0 68 -6 135.5t-15 124t-21.5 94.5t-24.5 48l-213 -10q-4 12 -7 41.5t-6.5 66.5t-5.5 78t-2 78q14 2 67.5 7t128.5 10t159 11.5 t157.5 11.5t127 10t65.5 9q12 -45 21.5 -115.5t9.5 -158.5q-45 -10 -83 -16.5t-81 -10.5q2 -61 10 -158.5t8 -195.5q0 -41 -2 -81t-8 -75q-16 -102 -47 -191t-79 -156t-113.5 -105.5t-147.5 -38.5q-51 0 -90 12t-71 33.5t-62.5 50.5t-63.5 63z" />
<glyph unicode="K" horiz-adv-x="923" d="M6 1241q31 6 72 12.5t87 11.5t96 8t99 3q1 -26 1 -56.5t-1 -64.5q-2 -68 -2 -133v-65.5t4 -59.5q23 31 56 87t65.5 116.5t61 112t43.5 71.5q33 0 77 -12t89 -28.5t88 -34t76 -27.5q-72 -129 -146 -231.5t-133 -173t-96 -109.5t-37 -43q0 -31 44 -85.5t103.5 -118 t116.5 -124.5t86 -104q-12 -27 -38.5 -57t-60.5 -58.5t-70 -51t-64 -34.5h-3q-24 0 -61 36q-39 38 -80 89t-73.5 100t-45.5 70q-2 -20 0 -59.5t4.5 -85.5t3.5 -92v-30q0 -29 -1 -53q-20 2 -45 2q-32 0 -72 -3q-72 -5 -137 -5q-18 0 -36 1t-34 3q-2 72 -3 185.5t-3 244.5 t-4 268.5t-6 255t-9.5 204.5t-11.5 118z" />
<glyph unicode="L" horiz-adv-x="624" d="M6 1249q12 4 55 11q37 4 108 9t200 13v-102q0 -186 5 -376t17 -394q35 2 87 8t124 14q2 -20 4 -66.5t5 -98.5t5 -99t2 -72q-158 -27 -257 -41t-159.5 -22t-91 -10.5t-53.5 -2.5l11 -8q-6 129 -13.5 281.5t-15.5 315.5t-17.5 326t-15.5 314z" />
<glyph unicode="M" horiz-adv-x="1110" d="M6 0q4 244 9 457t9.5 374.5t8.5 262t8 123.5q31 0 71 -2.5t84 -4.5t89 -3t82 -1h34.5t30.5 2q16 -25 34.5 -65.5t38 -85.5t39 -89t36.5 -75q16 27 37.5 74t43 99t42 102.5t36.5 82.5l365 13q-4 -121 -8 -278t-9.5 -322.5t-11.5 -328.5t-12 -296q-53 -4 -108.5 -6 t-114.5 -2h-62.5t-64.5 4q-7 3 -9 23q-1 10 -1 29q-1 19 1 46q2 55 9.5 157.5t19.5 272.5q-16 -12 -35.5 -38.5t-40 -57.5t-42 -60.5t-46.5 -50.5q-33 25 -63.5 62t-58 78t-52 81.5t-43.5 71.5q-18 -157 -34 -323q-14 -147 -13 -297v-39q-10 -2 -39.5 -2h-64.5 q-55 0 -113.5 2t-81.5 10z" />
<glyph unicode="N" horiz-adv-x="1028" d="M6 4q0 135 1 208t2 113t1 59v44t1 70t1 137v243.5v389.5q47 2 97.5 3t103.5 1q80 0 160 -3t153 -9l92 -635q6 0 11.5 36.5t13.5 115.5t23.5 205t42.5 308q9 4 31 4q11 0 25 -1q42 -3 91 -11t94 -18.5t70 -18.5q1 -4 1 -9v-6q-1 -9 -6 -43t-17.5 -105.5t-35 -204 t-56.5 -336t-83 -500.5q-29 -4 -61.5 -4h-67.5q-47 0 -96 1h-32q-32 0 -64 -1q-23 82 -52.5 186.5t-55 202.5t-45 176t-21.5 107q-4 -51 -10.5 -148.5t-14.5 -205t-17.5 -207t-15.5 -152.5q-59 0 -125.5 2t-138.5 6z" />
<glyph unicode="O" horiz-adv-x="737" d="M6 731q0 86 12.5 174t46 165t92 132t148.5 74q31 6 60 6q96 0 165.5 -61.5t113.5 -151.5t65.5 -193.5t21.5 -187.5q0 -49 -4 -116.5t-14.5 -141.5t-30.5 -147.5t-53 -135t-80 -103.5t-113 -50q-25 -4 -49 -4q-83 0 -143 45q-76 57 -124 150.5t-71.5 202t-34.5 194.5 q-4 35 -6 71.5t-2 77.5zM307 674q0 -53 7.5 -107.5t19.5 -97.5t30 -69q16 -23 36 -24q3 0 6 1q31 4 45 60.5t14 129.5q0 51 -6 104.5t-18.5 96.5t-29 70.5t-36.5 27.5q-18 0 -30.5 -15t-21 -42t-12.5 -61.5t-4 -73.5z" />
<glyph unicode="P" horiz-adv-x="854" d="M7 1202q1 16 5 19q74 10 176.5 24.5t210.5 14.5q80 0 156 -12.5t136.5 -46.5t101.5 -91t51 -147q3 -25 2 -49q0 -68 -20 -128q-28 -81 -85 -141.5t-138 -96.5t-173 -42q-12 -53 -15 -120t-3 -138q0 -29 1 -56.5t1 -56.5q0 -47 -2 -87t-6 -68h-59.5t-88.5 2t-89 4t-60 8 q-2 10 -2.5 26.5t-0.5 34.5q0 45 2.5 108.5t5.5 138.5t6 156t3 163q0 80 -3 156.5t-14 142.5q-23 6 -33 0.5t-40 -0.5q-10 84 -15.5 140t-8.5 91q-2 26 -2 42v9zM414 903q0 -43 1 -84t5 -57q12 -3 23 -3q19 0 37 8q28 13 47.5 38.5t29.5 58.5q7 24 7 48q0 10 -1 20 q-8 52 -44 76q-21 14 -52 14q-21 0 -47 -6q-4 -10 -5 -42t-1 -71z" />
<glyph unicode="Q" horiz-adv-x="817" d="M6 467q0 35 1 68.5t3 62.5q6 111 36 231.5t88.5 221t146.5 165.5q83 60 194 60h14q90 -4 153 -49t100.5 -118t53.5 -167q11 -68 11 -138q0 -27 -2 -54q-4 -61 -15.5 -123t-29 -120t-39 -110.5t-43.5 -95.5q2 -27 18.5 -50.5t37 -47t42 -46t35.5 -44.5q0 -31 -49 -92.5 t-121 -133.5q-59 33 -93 77t-69 69q-12 -6 -30.5 -18.5t-42 -26t-52 -22.5t-59.5 -9q-94 0 -150.5 48t-87 123t-41 165t-10.5 174zM322 451q0 -66 13 -108t42 -44q31 0 56.5 40t44 101.5t29.5 133t11 133.5q0 63 -12 105t-41 44q-31 0 -57.5 -40t-45 -100.5t-29.5 -132 t-11 -132.5z" />
<glyph unicode="R" horiz-adv-x="917" d="M6 20q4 147 9 328.5t5 386.5q0 119 -2 241t-10 247q53 20 141.5 32.5t190.5 12.5q100 0 201.5 -15.5t183.5 -53.5t133 -99.5t51 -153.5q0 -74 -28.5 -131t-73.5 -102t-100.5 -81t-110.5 -65q8 -31 40 -79t72 -99t80.5 -96t65.5 -68q-2 -16 -29.5 -50t-64.5 -67.5 t-75 -60.5t-56 -29q-109 100 -183.5 216t-142.5 219q-4 -37 -7 -90.5t-4 -111.5t-3 -113.5t-2 -94.5q-23 -8 -60 -12t-76.5 -6t-78.5 -3.5t-66 -1.5zM332 805q18 -14 51 -14h9q40 2 80 16t69.5 37.5t29.5 48.5q0 23 -15 37t-38.5 23.5t-51.5 12.5t-54 3q-23 0 -40.5 -2 t-27.5 -6z" />
<glyph unicode="S" horiz-adv-x="864" d="M8 37q0 20 4 78.5t12.5 122t19.5 114.5t24 58q20 -23 54 -43.5t75 -36t85 -24.5t85 -9q63 0 110 25.5t58 89.5q1 9 1 17q0 39 -32 61q-39 28 -96.5 45.5t-121 30t-104.5 36.5q-35 20 -65.5 47t-52.5 64t-34 85q-8 33 -9 74q0 18 2 37q6 94 58 163t131 114t174 65.5 t187 20.5q80 0 151 -14.5t118 -43.5q0 -14 -11.5 -54t-27 -87t-33.5 -94t-37 -74q-53 29 -101 41t-89 12q-70 0 -111 -26q-43 -27 -43 -55q0 -33 34 -53q36 -20 89 -39t115.5 -40.5t114.5 -58.5q54 -36 86 -96q29 -53 28 -134v-20q-6 -119 -60.5 -202.5t-138.5 -138 t-186 -79t-203 -24.5q-72 0 -138.5 11t-121.5 34z" />
<glyph unicode="T" horiz-adv-x="980" d="M6 1222.5q0 12.5 4 16.5q43 0 118 1t165 3t190.5 4t192.5 5t170 6.5t125 5.5l4 -349l-309 -28q-4 -20 -7.5 -78.5t-4.5 -138.5t-2 -172t-3 -178.5t-5 -159t-9 -113.5l-77 -14t-90 -14.5t-90 -10.5q-29 -3 -56 -3q-13 0 -25 1q-4 117 -6 246t-3 250t-2 222t-7 167l-269 -2 q0 113 -1 181.5t-2 104t-1 48z" />
<glyph unicode="U" horiz-adv-x="851" d="M6 762q0 119 4 238.5t8 248.5q41 4 89.5 5t101.5 1h184q-12 -131 -21.5 -220t-15.5 -152.5t-9 -109.5t-3 -89q0 -57 4 -123.5t14 -179.5q10 -31 23.5 -31t24 15.5t18.5 40t8 45.5q6 43 14.5 143t16.5 221t13 240t7 198h136q76 0 119.5 -1t67.5 -3t30 -4t6 -4 q-10 -102 -18.5 -224t-15.5 -252t-11 -261t-4 -250v-108.5t4 -98.5q-12 -14 -43 -24.5t-67 -17.5t-72.5 -11t-61.5 -4q-16 33 -17 49t-12 27q-18 -18 -46.5 -37t-61.5 -32t-68 -21.5t-61 -8.5q-78 0 -129 46t-81 113t-43.5 141.5t-17.5 129.5q-8 92 -11 182.5t-3 182.5z" />
<glyph unicode="V" horiz-adv-x="978" d="M6 1237q45 2 84 7t80 10.5t85 11.5t97 10q10 -63 21.5 -147.5t24 -179.5t26.5 -193.5t33 -188.5l209 709q31 0 70.5 -3t81.5 -8t83 -11.5t72 -10.5q-6 -20 -37 -129.5t-83 -278.5t-123 -385.5t-157 -449.5q-94 0 -154.5 -2t-94 -4t-47 -2t-13.5 4q-27 147 -58.5 312 t-65.5 330t-67.5 319.5t-66.5 279.5z" />
<glyph unicode="W" horiz-adv-x="1275" d="M6 1232v13q0 27 8 8l369 23q6 -47 12 -123t14.5 -166t18.5 -187.5t25 -185.5q20 37 52 101.5t64.5 132t61 130t43.5 97.5q8 -18 26.5 -64t40 -99.5t41 -104.5t31.5 -78l111 561q31 -2 74.5 -7t91 -9t95.5 -9t85 -8q-6 -14 -19.5 -75.5t-33 -152.5t-42 -201.5t-45 -223 t-44 -220.5t-39 -190.5t-28.5 -133t-13 -50.5l-353 -10q-8 27 -14 60.5t-12 68.5t-10.5 67.5t-10.5 55.5q-35 -88 -56.5 -139.5t-34.5 -79t-19.5 -35.5t-8.5 -10q-51 0 -115.5 10t-168.5 10q-72 395 -114 647t-61.5 392.5t-21.5 184.5z" />
<glyph unicode="X" horiz-adv-x="972" d="M6 1124q0 16 41 50t93.5 72t100.5 71t64 47q12 -18 29.5 -64.5t41 -102.5t49.5 -114.5t52 -101.5q18 31 44 84t52.5 108.5t50 105.5t40.5 79q16 0 61 -27.5t94 -63.5t89 -72t44 -52q-16 -35 -56 -96.5t-82 -127t-75.5 -123t-36.5 -85.5q-10 20 1.5 -5.5t44 -89t87 -159 t132.5 -213.5q-27 -23 -63 -50.5t-74.5 -55t-76.5 -51.5t-69 -36q-23 25 -44.5 60.5t-45 72.5t-49 72t-53.5 59q-18 -6 -48 -58t-60 -113.5t-56.5 -110.5t-38.5 -49q-18 0 -53 20.5t-73 47t-73 53t-55 40.5q18 59 48 115.5t60.5 112t61.5 112t53 117.5q0 4 -15.5 37t-39 82 t-52 107.5t-56 114.5t-52.5 104.5t-37 76.5z" />
<glyph unicode="Y" horiz-adv-x="1054" d="M8 1100q6 12 44 45t86 68.5t92 64.5t61 33q20 -31 48 -74t59.5 -89t68.5 -91t74 -78q-1 -3 -1 -5q0 -1 1 -1q5 0 50 73q58 95 179 273q25 -10 104.5 -44t174.5 -93q-16 -39 -67.5 -113t-110 -156t-107.5 -155.5t-59 -112.5q-8 -180 -13.5 -296t-7.5 -182.5t-2 -94v-33.5 q-16 -12 -54 -18.5t-83 -7.5t-86 -2t-64 -3q-8 205 -13 324t-10 183.5t-8.5 90t-5.5 43.5q-131 162 -201.5 251t-104.5 131t-39 52.5t-5 16.5z" />
<glyph unicode="Z" horiz-adv-x="991" d="M6 346q0 82 10 92l504 455l-434 35v86q0 66 -1 109.5t-3 73.5t-2 49.5t2 37.5q63 0 137 -5t177.5 -11t244.5 -11.5t340 -5.5q2 -25 3 -46t1 -46q0 -43 -2 -102.5t-4 -163.5q-59 -72 -131 -136.5t-146.5 -128t-145.5 -129t-128 -137.5l406 -6q2 -2 2 -24.5t-1 -57 t-3.5 -76.5t-5.5 -80t-5 -66.5t-4 -39.5h-90q-92 0 -189.5 -2t-190.5 -4t-178 -4t-151 -2q0 37 -2 83l-4 92t-4 90t-2 81z" />
<glyph unicode="[" horiz-adv-x="518" d="M6 -37q2 203 11.5 423t19.5 425t21.5 377t19.5 276q29 2 58.5 2h58.5q74 0 151.5 -3t165.5 -7q-4 -10 -4 -64.5t-2 -119t-5 -121.5t-9 -76h-142q-4 -14 -10 -74.5t-12 -158t-14.5 -227.5t-16.5 -281q31 0 63.5 2t88.5 2q2 -16 2 -33.5v-36.5q0 -72 -8.5 -147.5 t-18.5 -147.5q-49 -2 -103.5 -4t-109.5 -4t-108.5 -2h-96.5z" />
<glyph unicode="\" horiz-adv-x="917" d="M10 1182q14 14 58.5 34.5t95.5 41t96 36t62 21.5q70 -143 146.5 -293t153 -302.5t151.5 -304.5t138 -302q-12 -14 -38.5 -36t-56.5 -43.5t-57.5 -37.5t-39.5 -21q-227 360 -369.5 597t-221.5 375t-103.5 190.5t-14.5 44.5z" />
<glyph unicode="]" horiz-adv-x="505" d="M6 150q0 53 3 105t14 103q55 -6 86.5 -10t62.5 -8q10 231 15.5 407.5t5.5 264.5v46t-3 23l-141 15q-4 18 -1 76.5t7 122t8.5 117.5t2.5 65q123 -4 227 -11.5t207 -21.5q-2 -104 -8.5 -277.5t-15.5 -378t-21.5 -424.5t-28.5 -421q-43 2 -95 8t-107.5 12t-110 14.5 t-101.5 14.5q-6 76 -6 158z" />
<glyph unicode="^" horiz-adv-x="905" d="M6 1042q25 47 78 116t114.5 139.5t122 133t101.5 97.5q51 -37 118.5 -101.5t135 -138.5t127 -148.5t96.5 -129.5q-72 -8 -143.5 -35t-139.5 -33q-16 16 -40.5 49t-51 69t-50 69.5t-38.5 52.5q-18 -16 -41.5 -49t-47 -69t-46 -69.5t-43.5 -52.5q-78 18 -141.5 49 t-110.5 51z" />
<glyph unicode="_" horiz-adv-x="1239" d="M6 -154q0 41 2 77t6 46q446 6 719 11.5t395 5.5q111 0 99 -6q4 -14 4 -48t-3 -71t-7 -70t-7 -45q-123 6 -258 6q-160 0 -322.5 -4t-326.5 -4q-150 0 -291 6q-4 12 -7 39t-3 57z" />
<glyph unicode="`" horiz-adv-x="409" d="M6 1581q45 45 103.5 81t117.5 54l176 -358q-6 -10 -35.5 -32t-62.5 -30q-25 20 -68.5 58.5t-90 79.5t-86.5 80.5t-54 66.5z" />
<glyph unicode="a" horiz-adv-x="888" d="M6 51q59 276 93 487.5t52.5 361t26.5 240.5t17 128q35 0 81 1t94 2t95 2t84 1h40t29 -2q4 -27 29 -136.5t61.5 -277.5t82 -379t92.5 -438q-37 -6 -76 -15.5t-72 -17.5t-53 -13q-14 -4 -20 -4q-2 0 -3 1q-18 59 -45.5 133t-44.5 127q-16 0 -43.5 1t-58.5 2t-62.5 2 t-54.5 1q-14 -74 -23.5 -122t-15.5 -76.5t-9 -41t-7 -14.5q-16 0 -59 4t-90.5 10.5t-87.5 14.5t-52 18zM401 549l76 -4q0 12 -6 41.5t-15.5 63.5t-20.5 66t-17 48q-2 -16 -4 -43t-5 -57.5t-5.5 -61.5t-2.5 -53z" />
<glyph unicode="b" horiz-adv-x="794" d="M6 1155v39.5t4 38.5q51 12 121 21.5t148 9.5t154.5 -12.5t140 -43t105.5 -82t50 -129.5q1 -12 1 -24q0 -30 -7 -59q-10 -40 -30.5 -76.5t-51.5 -72.5t-66 -71q33 -14 68 -39.5t64.5 -58.5t51 -73t25.5 -85q3 -30 3 -58q0 -99 -39 -168q-50 -89 -140 -142.5t-209.5 -75 t-246.5 -21.5h-41t-41 2q-6 16 -13.5 53.5t-12.5 79.5t-7 81.5t2 60.5q18 10 38.5 7t31.5 5q-4 168 -9.5 338t-15.5 344q-4 4 -13.5 4t-19.5 -1t-19 -3t-12 0q-4 41 -9 97.5t-5 113.5zM334 981l10 -131q33 4 55.5 26.5t18.5 57.5q-2 20 -16 32q-12 11 -28 16q-13 4 -24 4h-4 q-12 -1 -12 -5zM390 469l11 -154q33 4 55 31q19 23 20 56q0 6 -1 12q-4 23 -17.5 36t-28.5 19t-27 6t-12 -6z" />
<glyph unicode="c" horiz-adv-x="729" d="M8 563v25q0 45 5 102q7 74 25.5 154t50.5 158.5t80 140t114.5 100.5t156.5 41h8q82 0 134 -38q56 -40 87 -102.5t42.5 -139t11.5 -150.5v-42t-2 -40l-236 -43q-4 16 -4 46t-4 57.5t-15 47t-38 19.5q-31 0 -54.5 -37t-39 -86t-23.5 -98t-8 -74v-90q0 -35 2 -73t8 -68.5 t17.5 -52t29.5 -21.5q31 -2 39 34t8 81q0 23 -1 42t-1 36h58t72.5 -2.5t75.5 -7.5t69 -15q2 -22 2 -45q0 -52 -10 -110q-14 -83 -51 -154.5t-98.5 -119.5t-149.5 -48h-9q-108 0 -174 48q-70 50 -108.5 131t-53 184.5t-16.5 209.5z" />
<glyph unicode="d" horiz-adv-x="817" d="M6 1217q142 40 269 40h6q102 0 192 -26.5t158.5 -85t115 -148.5t58.5 -217q6 -59 6 -114q0 -166 -48 -292t-127 -211t-181.5 -127t-210.5 -42q-74 0 -144 18q-14 147 -21 293t-16.5 293t-21.5 301t-35 318zM352 350q33 14 61.5 49t48 80t32 96.5t12.5 100.5v9 q0 83 -35 141q-32 52 -97 52q-11 0 -22 -1v-527z" />
<glyph unicode="e" horiz-adv-x="757" d="M8 41q0 20 1 58t3 78t5 76t3 56q16 10 27.5 7t30.5 6q6 55 12 145t11 185.5t10.5 183.5t11.5 141q-23 6 -41.5 6t-34.5 4v24q0 49 6 113q8 80 15 152q-18 0 30 1h28q46 0 118 -2q96 -3 226 -12.5t275 -27.5q4 0 4.5 -15.5t0.5 -19.5l-17 -270q-8 -6 -19.5 -6t-41 3 t-86 10t-152.5 15q0 -23 -3 -40t-1 -52q20 -6 47 -7t54.5 -1t53 -1t46.5 -7q5 -15 5 -44q0 -10 -1 -20q-2 -44 -6 -93.5t-8.5 -94.5t-4.5 -68q-16 0 -41.5 4t-55.5 8.5t-60.5 6.5t-55.5 2l-18 -238q55 0 125 -4t125 -12q2 -16 2 -33.5v-36.5q0 -102 -19 -221q17 -4 8 -4 q-4 0 -14 1q-32 3 -112 10t-205 16.5t-287 17.5z" />
<glyph unicode="f" horiz-adv-x="604" d="M6 1219q12 0 15.5 1t14.5 2t39.5 3t89 5t163 7t262.5 12q2 -16 4 -60t3 -93t1 -94.5v-59.5q-47 0 -69.5 -1t-40 -1t-39 -2t-64.5 -4q-4 -27 -3 -51.5t5 -53.5q14 -2 38 -1t48.5 2t46 2.5t33.5 -1.5q8 -61 11 -123.5t5 -140.5l-180 -16l8 -557q-18 -2 -57 -3t-83 -1 t-89 -1t-78 -1q-2 106 -7 233t-12.5 257t-15.5 254t-17 225.5t-17.5 171t-14.5 90.5z" />
<glyph unicode="g" horiz-adv-x="847" d="M6 666q0 111 33 216t91 189t139 138.5t177 62.5q17 1 32 1q79 0 133 -33q65 -40 102 -105.5t51 -146.5q12 -71 12 -134v-18q-25 -6 -58.5 -10.5t-70.5 -7.5t-71.5 -6t-59.5 -5q0 51 -9 78.5t-20.5 42t-21.5 16.5t-12 2q-45 -6 -74 -40t-44.5 -82t-21.5 -105t-6 -109 q0 -37 2 -67.5t4 -50.5q2 -16 12.5 -63.5t31 -95.5t49.5 -85q25 -33 59 -33h8q18 2 29.5 19.5t15.5 41t2 45t-8 33.5q-18 4 -34.5 -1t-33.5 -5q-8 14 -15 49t-13 72t-9.5 70.5t-3.5 48.5q10 4 45 11t81 15.5t98.5 15.5t95.5 12t71.5 8t28.5 1l19 -245q-12 -6 -19.5 -7.5 t-13.5 -2.5t-15.5 -3t-25.5 -6q0 -47 3 -103.5t3 -111.5v-31.5t-2 -31.5q2 -29 -12 -53t-37 -42q-129 -65 -243 -65h-3q-109 0 -192.5 53t-143 143.5t-92.5 208t-39 244.5q-2 16 -3 33.5t-1 34.5z" />
<glyph unicode="h" horiz-adv-x="757" d="M6 1276q30 1 60 1t60 -1q60 -2 120 -2h40.5t41.5 2q0 -86 -1 -194.5t-1 -213.5v-98q20 -4 52 -1t56 1q2 23 2 45.5v46.5q0 100 -6 208t-10 194q29 0 78 -1t99 -3.5t93 -5.5t62 -5l-13 -1245h-266q-4 35 -4 84t-2 105.5t-4 116t-8 114.5q-23 2 -38.5 2h-27.5t-23.5 1 t-25.5 1q-2 -47 -4 -112.5t-3 -129t-3 -115t-2 -65.5q-26 -2 -55 -2q-36 0 -75 3q-71 5 -135 9q0 78 -3 180.5t-8 216t-11 233.5t-12 233.5t-12.5 216t-10.5 180.5z" />
<glyph unicode="i" horiz-adv-x="401" d="M6 1118q0 80 51.5 120t116.5 40q33 0 65.5 -11.5t59.5 -34t42 -57t15 -81.5q0 -82 -44 -127t-111 -45q-80 0 -137.5 55t-57.5 141zM20 854q-1 9 0 15q0 16 5 10q16 4 52 6t81 2q37 0 73.5 -1t69.5 -2t58.5 -3t35.5 -2q0 -115 -1 -219.5t-1 -209t-1 -212t-3 -226.5 q-18 -6 -58 -8t-83 -2q-39 0 -72 1t-47 1q-35 276 -58.5 450.5t-36 270.5t-14.5 129z" />
<glyph unicode="j" horiz-adv-x="837" d="M6 412q0 41 2 80.5t6 80.5q27 -2 62 -4t71.5 -5t72.5 -6t65 -5q0 -4 -4.5 -22.5t-9.5 -46t-8 -58.5t-3 -59q0 -33 6 -55.5t23 -26.5q33 -6 55.5 22.5t35.5 78.5t19.5 116.5t6.5 136.5q0 55 -3.5 108.5t-8.5 98.5t-12 77.5t-15 49.5l-209 24q0 12 1 41t4 66t7 78t10 75 q14 0 64.5 -4t119 -11t145.5 -15t144.5 -14.5t116.5 -10.5t61 -4q0 -47 -6 -111.5t-16 -156.5q-43 0 -62.5 2t-44.5 0q0 -16 1.5 -30.5t1.5 -31.5q0 -82 -8.5 -176t-28 -189t-51 -183.5t-78.5 -155t-112 -107.5t-148 -41q-39 1 -74 9q-59 12 -97 48t-60.5 87t-32 115.5 t-9.5 134.5z" />
<glyph unicode="k" horiz-adv-x="774" d="M6 1247q68 10 140.5 17.5t164.5 17.5q0 -70 -3 -145.5t-2 -147.5v-43t1 -39q16 35 38 93.5t41.5 119t35.5 109.5t22 67q31 0 69 -5t78 -13t79 -16.5t71 -16.5q-63 -135 -113 -249.5t-86 -198.5t-55.5 -133.5t-19.5 -53.5q8 -29 44 -79t83 -105t95 -110.5t79 -96.5 q-18 -25 -48 -56.5t-62.5 -62t-66.5 -57.5t-61 -39q-23 14 -51 53t-56 84t-51.5 87t-35.5 61q0 -20 3 -55t7 -75t8 -81t4 -78q-29 0 -64.5 -3t-73.5 -7t-76 -7q-22 -2 -43 -2q-14 0 -27 1q-6 72 -13.5 184.5t-13.5 243.5t-11 266t-10.5 253t-10.5 203t-9 115z" />
<glyph unicode="l" horiz-adv-x="497" d="M6 41q8 129 19.5 280.5t27 312.5t34.5 324.5t42 315.5q-3 1 3 1t22 -1q27 -4 91 -11.5t199 -27.5q-33 -209 -59.5 -420t-44.5 -439q18 -2 29.5 -2.5t27 0.5t36 1.5t56.5 -2.5q0 -18 -5 -68.5t-12 -108t-14 -108.5t-12 -70q-147 0 -232 5.5t-129 10.5t-58.5 7t-20.5 0z " />
<glyph unicode="m" horiz-adv-x="980" d="M6 1270l303 2q14 -33 32.5 -83t38 -104.5t38 -103.5t33.5 -78q12 37 27.5 87t30.5 102.5t28.5 99.5t21.5 78q16 -2 37.5 -2h46.5q35 0 75 1t78 2t72.5 2t59.5 1q-1 -10 -1 -34q0 -36 2 -102q3 -110 9 -282t16.5 -392t20.5 -460q-20 -2 -55 -3t-74 -1q-47 0 -90 1t-58 3 v42q0 148 -12 292q-14 164 -31 319q-16 -31 -38.5 -68.5t-47 -77.5t-51 -78t-53.5 -68q-47 57 -81 110t-62 90q10 -170 18 -270t11 -153.5t3 -72t-4 -20.5q-47 -4 -92 -6t-88 -2q-33 0 -64.5 1t-62.5 3q-6 133 -11 296t-10.5 329t-9.5 322.5t-6 277.5z" />
<glyph unicode="n" horiz-adv-x="886" d="M6 1217q57 2 99 5t81 6t81 6t100 7l190 -520q6 0 6 25.5t-2 83t-4 152.5t-2 235v65q16 2 52 3t79 1q55 0 109.5 -3t83.5 -7q0 -8 -1 -30.5t-4.5 -72t-7.5 -133.5t-11 -216t-16.5 -319.5t-21.5 -445.5q-74 -2 -135 -4t-147 -6q-41 80 -82 161t-75 151.5t-56.5 126 t-28.5 83.5q2 -51 5.5 -128.5t7 -162.5t5.5 -165t2 -135l-245 -11q-14 147 -21.5 310t-12.5 327t-11.5 320.5t-16.5 290.5z" />
<glyph unicode="o" horiz-adv-x="733" d="M6 680.5v36.5q0 92 17.5 198.5t60.5 193.5q42 87 116 138q54 38 130 38q26 0 55 -5q113 -18 180.5 -92t104.5 -174t47 -210q8 -92 8 -169v-31q-2 -57 -10 -126.5t-25.5 -140.5t-45.5 -137.5t-68 -114.5q-40 -49 -98 -75q-44 -20 -99 -20q-16 0 -33 2q-61 6 -108.5 44 t-84 94t-62 126t-43 140.5t-27 136t-13.5 114.5q-2 16 -2 33.5zM283 637q0 -45 4 -89t12 -78q7 -34 21 -54q12 -18 27 -17h3q14 2 26.5 22.5t21 54.5t12.5 76t4 85q0 45 -4 87t-14 74q-10 34 -22 52q-11 17 -27 16h-3q-16 -2 -27.5 -21.5t-18.5 -52t-11 -72.5t-4 -83z" />
<glyph unicode="p" horiz-adv-x="722" d="M6 1229q68 16 143.5 28.5t161.5 12.5q31 0 64 -3t65 -7q74 -12 126 -42t86 -72t49.5 -93.5t15.5 -106.5q0 -78 -30 -156.5t-83 -142t-128 -101.5q-71 -36 -156 -36h-9q0 -59 3 -129t6.5 -139.5t6.5 -133t3 -110.5h-54t-77 2t-80 4t-62 2q0 55 -4 150.5t-8 211t-10 242.5 t-12.5 245t-10.5 216t-6 158zM295 975q0 -39 1 -83t3 -85t4 -55q11 -3 21 -3q20 0 38 10q27 15 46.5 42.5t29.5 62.5q8 24 8 46q0 10 -2 20q-2 20 -13 40.5t-30.5 35t-46.5 20.5q-11 3 -23 3q-16 0 -34 -5q-2 -10 -2 -49z" />
<glyph unicode="q" horiz-adv-x="831" d="M8 557q-1 27 -1 55q0 86 13 180q19 123 66 228.5t129 178.5t203 81q12 1 23 1q74 0 133 -34q67 -39 112 -107.5t69.5 -160.5t28.5 -191q1 -24 1 -48q0 -99 -19 -198q-25 -122 -64 -212q6 -25 19.5 -42.5t30 -32.5t36 -30.5t35.5 -36.5v-6q0 -31 -38 -90 q-42 -65 -107 -145q-31 12 -50.5 25.5t-34.5 25.5t-29 23.5t-32 21.5q-10 -6 -27.5 -20.5t-40 -30t-50 -28.5t-58.5 -15q-18 -2 -34 -2q-55 0 -96 21q-54 26 -91 76t-60.5 115.5t-37.5 135.5t-20.5 138.5t-8.5 123.5zM315 547q0 -53 6.5 -101.5t16.5 -86t26 -60.5 q15 -20 32 -20h5q27 2 47.5 34.5t36 85t23.5 114.5t8 124q0 45 -5 86t-14.5 71.5t-26 48t-36.5 17.5q-31 0 -53.5 -27.5t-36.5 -71.5t-21.5 -100.5t-7.5 -113.5z" />
<glyph unicode="r" horiz-adv-x="892" d="M6 39h6q14 190 25.5 354t20 310.5t14.5 280.5t10 263q49 10 119.5 17.5t148.5 7.5q92 0 187.5 -14.5t172 -49t126 -97t49.5 -157.5q0 -72 -20.5 -132t-56.5 -108t-85 -85t-107 -64q8 -29 29 -75t46.5 -95t54 -92t51.5 -67q-2 -16 -32 -49t-68 -66t-75.5 -57.5 t-58.5 -26.5q-49 70 -81.5 127t-58.5 109.5t-47.5 101.5t-45.5 102q-6 -35 -13.5 -90t-14.5 -115.5t-13 -118t-8 -94.5q-31 -14 -79 -18t-98 -4q-29 0 -53 1t-45 1zM362 813q20 -16 58 -16q25 0 52.5 6t50 18.5t39 29.5t16.5 40q0 33 -26 50t-59.5 25.5t-66.5 8.5t-47 -2z " />
<glyph unicode="s" horiz-adv-x="788" d="M6 86q0 8 7 54t16.5 98.5t18.5 95.5t15 49q29 -8 64 -20.5t72 -23.5t74.5 -19.5t72.5 -8.5q47 0 85 21.5t56 79.5q5 16 5 30q0 28 -22 50q-34 32 -90 54.5t-118.5 42t-103.5 46.5q-59 39 -97 97.5t-38 152.5q0 33 6 69q12 86 57 144.5t108.5 95.5t140.5 52.5t157 15.5 t155.5 -14.5t134.5 -37.5q-2 -14 -8 -49t-15 -78t-20.5 -90t-23.5 -86q-72 23 -126 31t-95 8q-59 0 -90 -16.5t-35 -40.5v-8q1 -31 27 -51q30 -22 78 -44t103.5 -45.5t99.5 -63.5q43 -39 69 -101q18 -44 19 -106q0 -24 -3 -50q-12 -104 -51 -176t-97.5 -117t-134.5 -64.5 t-164 -19.5q-72 0 -149.5 11.5t-159.5 31.5z" />
<glyph unicode="t" horiz-adv-x="772" d="M6 948q4 113 6 178.5t2 98v42t4 11.5q63 -6 162 -11t205.5 -10.5t208.5 -11.5t172 -12l-10 -340l-232 12q-4 -18 -8 -82.5t-8 -152.5t-8 -190.5t-8 -199t-8.5 -174t-8.5 -118.5q-76 4 -156.5 10t-150.5 16q0 100 2 212t5 221.5t5 210t2 178.5v53t-2 45z" />
<glyph unicode="u" horiz-adv-x="860" d="M6 1204q68 16 150 24.5t188 22.5q2 -141 2 -235v-161t2 -115t8 -98t16.5 -111.5t26.5 -153.5q14 -29 26.5 -28t21 17.5t12.5 42t2 44.5q4 37 5 120.5t1 188.5q0 66 -1 134.5t-2 134t-4 123.5t-5 101q119 6 190 7q90 0 122 -5.5t32 -9.5q-2 -57 -3 -119.5t-1 -132.5 q0 -111 3 -229.5t10 -235t18.5 -226t27.5 -202.5q-10 -14 -39 -28.5t-62.5 -25.5t-67.5 -19.5t-58 -10.5q-18 29 -21.5 44.5t-13.5 25.5q-16 -20 -43 -38.5t-57.5 -32t-61.5 -23.5t-57 -12q-16 -2 -31 -2q-56 0 -98 30q-54 38 -88.5 96t-55 126.5t-30.5 121.5 q-18 104 -27.5 209t-14.5 210.5t-9.5 213t-12.5 217.5z" />
<glyph unicode="v" horiz-adv-x="882" d="M-4 1241q59 8 151.5 22.5t190.5 28.5q8 -63 19.5 -146t26.5 -177.5t32.5 -197.5t38.5 -208l75 719q12 1 27 1q22 0 49 -2q45 -3 94.5 -8t96.5 -11.5t80 -8.5q-4 -14 -16.5 -72.5t-31 -150.5t-42 -211t-50 -253t-55.5 -278.5t-57 -285.5q-94 -4 -151.5 -8t-89.5 -6t-43 -2 t-13 4q-41 154 -82 321.5t-82 333.5t-83 319.5t-85 276.5z" />
<glyph unicode="w" horiz-adv-x="1036" d="M6 1253q35 2 77 7.5t85 9.5t82 9t67 7l39 -530q10 27 27.5 66.5t36 79.5t34 76t21.5 54q18 -37 42 -87t50.5 -103.5t51 -103.5t43.5 -87q12 88 19 182.5t9 180.5t3 158.5t1 119.5l336 -32q-2 -18 -4 -47t-7 -83.5t-13.5 -139.5t-22.5 -216t-34.5 -315t-49.5 -434 q-33 -4 -68.5 -9.5t-70.5 -10.5t-65.5 -9t-55.5 -4q-2 2 -7 10t-17.5 33.5t-34 77t-52.5 141.5q-4 -23 -9 -55.5t-9 -67.5t-10 -69.5t-15 -61.5l-307 12l-7 50l-18.5 129.5t-26.5 185t-30.5 215t-30 220.5t-27.5 201t-21.5 155.5t-10.5 84.5z" />
<glyph unicode="x" horiz-adv-x="974" d="M6 229q76 113 131.5 204t88 150.5t44 84t0.5 6.5q-4 27 -36.5 82t-74.5 116.5t-82 119t-57 91.5q4 14 44 48t89.5 68t94.5 60.5t61 26.5q14 -27 39 -74t52.5 -100t53 -102t44.5 -80q27 41 52 96t49 108.5t41 96.5t30 61q16 -12 64 -43.5t100.5 -67.5t93.5 -69t41 -47 q-14 -27 -38 -73t-51.5 -99t-56 -108.5t-52 -101.5t-39 -78t-15.5 -36q23 -57 53.5 -110t61 -105.5t60.5 -105.5t48 -111q-20 -12 -55 -37.5t-73 -51t-73 -45t-53 -19.5q-12 0 -38.5 47t-57.5 104.5t-60.5 107.5t-48.5 56q-29 -25 -54.5 -57.5t-49 -67.5t-46 -68.5 t-42.5 -58.5q-31 12 -70 34.5t-77 48.5t-73.5 52.5t-62.5 46.5z" />
<glyph unicode="y" horiz-adv-x="839" d="M6 1231q104 37 184 56.5t107 25.5q20 -74 39.5 -145.5t33 -125t19.5 -80t2 -14.5q43 94 73 184.5t52 157.5h4q19 0 62 -14q49 -16 102 -37.5t97 -44.5t53 -35q-6 -8 -23.5 -44t-42.5 -87t-54.5 -109.5t-56 -112.5t-50 -98t-36.5 -63q-4 -16 -7 -41.5t-7 -90t-11.5 -183.5 t-15.5 -324q-23 2 -66.5 4t-90.5 3t-88 4t-58 10q2 6 5.5 53t3.5 162q0 70 -2.5 169t-8.5 234q-10 39 -42.5 119t-69.5 170t-68 172t-39 125z" />
<glyph unicode="z" horiz-adv-x="815" d="M6 66q2 57 6 126.5t8.5 133t7.5 111.5t5 63l391 403l-365 19q8 92 14.5 152.5t9.5 99t5 62.5t6 44q57 -4 122 -10t147.5 -13.5t191.5 -14.5t254 -15q0 -35 -2 -63.5t-6 -67.5t-9.5 -92.5t-13.5 -133.5q-51 -53 -121.5 -127.5t-138 -146.5t-122 -132.5t-68.5 -84.5 l360 -27q2 -2 -4 -50t-13 -107.5t-15.5 -114.5t-12.5 -70q-98 10 -182 17.5t-160 13.5t-148.5 12t-146.5 13z" />
<glyph unicode="{" horiz-adv-x="512" d="M6 625l125 125q-41 61 -61.5 128.5t-20.5 133.5q0 123 67.5 225t200.5 145q14 0 39 -25.5t50.5 -58t45 -65.5t23.5 -49q-72 -27 -111.5 -93.5t-39.5 -140.5q0 -63 29.5 -119.5t90.5 -87.5q0 -4 -6 -9t-21.5 -19.5t-42 -39t-65.5 -63.5l92 -110q-51 -33 -72.5 -73 t-21.5 -83q0 -39 15.5 -76t42 -69.5t62.5 -56t79 -35.5q0 -16 -13.5 -48t-33 -66t-41 -59.5t-39.5 -27.5q-61 23 -120.5 66.5t-106 100t-74 124t-27.5 139.5q0 82 43 162q0 2 -1 6t-9 16.5t-26.5 37t-51.5 65.5z" />
<glyph unicode="|" horiz-adv-x="360" d="M6 1251q16 2 63.5 9.5t102.5 14.5t104.5 10t67.5 -3q4 10 7 -18.5t3 -106.5q0 -66 -3 -173t-10 -262t-18.5 -362.5t-29.5 -476.5q-14 -2 -46 -1t-68 6.5t-70 11.5t-50 12q-14 162 -21 332t-12.5 341t-8.5 339t-11 327z" />
<glyph unicode="}" horiz-adv-x="512" d="M6 106q43 12 79 36t62.5 56.5t42 69.5t15.5 76q0 43 -21.5 83t-72.5 73l92 110q-39 39 -65.5 63.5t-42 39t-21.5 19.5t-6 9q61 31 90.5 87.5t29.5 119.5q0 74 -39.5 140.5t-111.5 93.5q4 16 23.5 49t45 65.5t50 58t39.5 25.5q133 -43 200.5 -145t67.5 -225 q0 -66 -20.5 -133.5t-61.5 -128.5l125 -125q-33 -41 -51.5 -66t-26.5 -37t-9 -16t-1 -6q43 -80 43 -162q0 -72 -27.5 -139.5t-74 -124t-105.5 -100.5t-121 -66q-18 2 -39.5 27.5t-41 59.5t-33 65.5t-13.5 47.5z" />
<glyph unicode="~" horiz-adv-x="796" d="M6 743q41 59 95.5 94t115.5 35q47 0 94 -21.5t92 -68.5q29 -29 64 -48t70 -19q33 0 62.5 19.5t51.5 66.5q14 0 36 -23.5t42.5 -55.5t38 -63t23.5 -43q-29 -74 -89.5 -105.5t-128.5 -31.5q-76 0 -145 33q-47 20 -85 37.5t-79 17.5q-27 0 -55.5 -10t-61.5 -37 q-8 8 -30.5 41t-47 71t-44 70.5t-19.5 40.5z" />
<glyph unicode="&#xa1;" horiz-adv-x="436" d="M6 -315q8 23 23.5 100.5t34 182t37 221t36 217t29.5 171t18 82.5l176 -53q-8 -182 -17 -355t-9 -355v-99.5t4 -101.5q-59 -4 -126 -9t-128 -5q-20 0 -39.5 1t-38.5 3zM166 903q16 53 56 69.5t87 4.5q27 -8 51.5 -25.5t42 -40t24.5 -50t-1 -56.5q-16 -53 -58 -66.5 t-89 0.5q-55 16 -92 61.5t-21 102.5z" />
<glyph unicode="&#xa2;" horiz-adv-x="759" d="M6 614q0 78 18.5 156t53.5 147.5t86 126t117 91.5q2 6 2 26.5t-1 45t-1 50v43.5q16 0 57 -1t87 -2t90 -2t69 -1q0 -31 -10.5 -74.5t-12.5 -78.5q33 -18 63.5 -50t57.5 -72t45 -86t25 -93q2 -4 -40 -41t-155 -125q-6 -2 -12 9t-14.5 26.5t-17.5 28t-19 10.5 q-4 -20 -11.5 -60.5t-13.5 -86.5t-11 -89t-5 -70l75 113q33 -12 78 -44t66 -58q-45 -117 -117 -185.5t-141 -101.5q-4 -16 -7.5 -45t-5.5 -58.5t-5 -57.5t-9 -40q-16 -2 -32.5 -3t-30.5 -1q-27 0 -50.5 3t-56.5 9q2 29 2 51.5v45.5q0 35 -1 61.5t1 46.5q-111 70 -162 187.5 t-51 248.5zM221 575q0 -29 6 -52t23 -34q2 0 4 18.5t4 50.5t3 75t3 90q-18 -16 -30.5 -59t-12.5 -89z" />
<glyph unicode="&#xa3;" horiz-adv-x="899" d="M6 342q20 -4 59 15.5t76 54t62.5 82t17.5 100.5l-88 -2q4 115 10.5 174t14.5 61l139 -8q6 53 39 128t79 145.5t100 124t103 59.5q20 -31 41 -68t36.5 -73.5t24.5 -72.5t7 -63q-16 0 -45 -19t-55.5 -47t-46 -58.5t-17.5 -55.5h170q4 -14 1 -45t-10 -64.5t-18.5 -63.5 t-23.5 -42q-53 -8 -92 -8t-98 -4q-23 -68 -41.5 -119t-36 -89t-32.5 -63.5t-34 -44.5q31 4 57.5 0t50 -10t47 -10t48.5 2q20 4 29.5 20.5t9.5 36.5q0 23 -12.5 41.5t-36.5 22.5q6 10 28.5 27.5t53 38t63.5 44t62 46.5q78 -29 111.5 -85.5t33.5 -123.5q0 -57 -22.5 -115.5 t-62.5 -103t-95.5 -70t-118.5 -19.5q-68 8 -135.5 22.5t-132.5 14.5q-55 0 -106.5 -17.5t-98.5 -66.5q-14 27 -32.5 78t-36 108.5t-31 108.5t-15.5 76z" />
<glyph unicode="&#xa4;" horiz-adv-x="890" d="M6 338q18 49 47 83t43 71q-45 41 -64.5 105.5t-19.5 121.5q0 39 11.5 75.5t27 69.5t32.5 59.5t32 47.5q-31 33 -47.5 51t-24.5 27.5t-9 12.5t-1 5q0 12 22.5 42t52 61.5t57.5 58t40 31.5q10 0 29.5 -19.5t40 -44.5t40 -49.5t29.5 -34.5q66 0 130.5 -2t123.5 -29 q25 27 54.5 62t52.5 59q16 -8 30.5 -19.5t33.5 -28.5t46 -44t68 -66q-12 -25 -44 -63.5t-55 -62.5q20 -27 32.5 -73t12.5 -97q0 -43 -10 -85t-35 -75q51 -68 76 -91.5t25 -27.5q0 -16 -17.5 -41t-41 -49.5t-49 -44t-42.5 -21.5q-27 16 -62.5 51t-66.5 56q-12 -18 -53 -34.5 t-96 -16.5q-31 0 -65 7t-68 23l-142 -163q-12 2 -37.5 13t-53.5 25.5t-51.5 31t-33.5 32.5zM299 717q0 -43 36 -77t114 -34q66 0 103.5 45t37.5 97q0 45 -31.5 80.5t-97.5 35.5q-37 0 -66.5 -13t-51 -34.5t-33 -47.5t-11.5 -52z" />
<glyph unicode="&#xa5;" horiz-adv-x="1050" d="M8 1100q6 12 45 46t88 68.5t94.5 64.5t61.5 34q20 -31 47 -74t57.5 -90t66.5 -92t73 -78q-4 -12 14 13.5t50 75.5t73 117.5t82 139.5q12 -6 41.5 -17.5t68.5 -29.5t84 -45t90 -62q-14 -33 -52 -92t-84 -126.5t-92 -136t-75 -120.5q45 -2 78 -1t60 -3q2 -14 3 -40.5 t1 -57.5q0 -37 -3 -74t-12 -55q-43 0 -86 -1t-86 -1q-2 -10 -3 -20.5t-1 -20.5q59 -2 106.5 0t86.5 0q2 -14 3 -42t1 -61q0 -41 -3 -77.5t-12 -55.5q-47 0 -95 -1t-95 -1q0 -45 -1 -72.5t-1 -45t-1 -29.5t-1 -27q-18 -4 -57 -5t-83 -1t-85 -1t-64 -3l-4 186q-111 0 -227 7 v155v76q20 4 79.5 -1t137.5 -3q-2 8 -2 22.5v22.5q-109 0 -221 6v156v75q16 2 54 0t95 0q-111 137 -171 215t-88 116t-32 49.5t-4 17.5z" />
<glyph unicode="&#xa6;" horiz-adv-x="292" d="M6 1055q0 55 3 103t9 79q16 4 54.5 5t79.5 1q35 0 62.5 -2t43.5 -6q4 -111 8 -217.5t4 -222.5v-88h-46.5t-66.5 -1t-69.5 -2.5t-58.5 -3.5q-4 14 -8.5 51t-7.5 86.5t-5 105.5t-2 112zM23 399q0 55 3 103.5t9 79.5q16 4 54 5t79 1q35 0 62.5 -2t43.5 -6q4 -111 8.5 -217.5 t4.5 -223.5v-88h-47t-67 -1t-69.5 -2t-58.5 -3q-4 14 -8 51t-7 86t-5 105.5t-2 111.5z" />
<glyph unicode="&#xa7;" horiz-adv-x="702" d="M6 584q0 49 20.5 107.5t71.5 123.5q-8 94 19.5 177t81 145.5t129 98.5t164.5 36q49 0 100 -12.5t104 -40.5q0 -14 -5 -53.5t-15 -84.5t-24.5 -84t-33.5 -51q-18 6 -42.5 11.5t-53.5 5.5q-49 0 -90 -20.5t-41 -78.5q10 -10 50 -21.5t84 -40t81 -82.5t43 -151 q4 -61 -26.5 -122.5t-77.5 -94.5q43 -84 43 -159q0 -70 -32 -127.5t-82 -98.5t-114.5 -63.5t-130.5 -22.5q-53 0 -104 16.5t-94 51.5q4 18 19.5 54t33.5 76t37.5 77t34.5 53q16 -18 39.5 -28.5t45 -12.5t39 4t21.5 18q6 20 -39 52t-102.5 79.5t-105.5 112t-48 150.5z M272.5 597q-0.5 -24 11 -47.5t30 -38.5t34.5 -11q29 0 31 24.5t-11.5 52t-36 47t-40.5 9.5q-18 -12 -18.5 -36z" />
<glyph unicode="&#xa8;" horiz-adv-x="604" d="M6 1436q0 78 46 119.5t104 41.5q47 0 82.5 -29.5t35.5 -97.5q0 -37 -14 -68.5t-35.5 -53t-49.5 -33.5t-54 -12q-47 0 -81 32.5t-34 100.5zM330 1446q0 74 45 116t102 42q47 0 84 -29t37 -98q0 -37 -14.5 -68t-36 -53.5t-49 -34.5t-54.5 -12q-47 0 -80.5 33.5t-33.5 103.5 z" />
<glyph unicode="&#xa9;" horiz-adv-x="1173" d="M8 621q4 125 39 246.5t109.5 217t194.5 149.5t292 42q150 -10 250 -69.5t161.5 -147.5t87 -190.5t25.5 -198.5q0 -35 -3 -66t-7 -59q-20 -119 -73.5 -223.5t-133.5 -182.5t-183 -123t-226 -45q-145 0 -248 56.5t-167.5 147.5t-93 208t-24.5 238zM227 614 q-6 -78 14.5 -153.5t63.5 -135t104.5 -96t139.5 -36.5q68 0 130 29.5t114.5 80.5t89.5 117.5t53 140.5q8 39 8 90q0 74 -21.5 145.5t-65.5 128t-109.5 90.5t-153.5 32q-98 -2 -166 -42t-111 -101.5t-63.5 -137.5t-26.5 -152zM281 573q-6 76 8 151t51 137.5t96.5 105.5 t143.5 53q45 6 91 -4t87 -40t72.5 -80t50.5 -126q2 0 -40 -36t-136 -107q-25 59 -57 83.5t-66 24.5q-59 0 -90 -48t-31 -107q0 -49 23.5 -91.5t76.5 -56.5q23 -6 64 15.5t63 95.5q14 -4 35.5 -18.5t43 -31t40.5 -34t27 -27.5q-47 -111 -117 -161t-142 -50q-53 0 -103 24.5 t-91 70.5t-67.5 111t-32.5 146z" />
<glyph unicode="&#xab;" horiz-adv-x="894" d="M6 606q23 33 58.5 79t78.5 98.5t91.5 104.5t94.5 98t88 81t72 51q4 -35 8.5 -66.5t7.5 -65.5t5 -74t4 -91q-16 -25 -47 -52.5t-62.5 -55t-61.5 -55t-46 -52.5q16 -16 44 -51t57.5 -75t55 -77.5t40.5 -58.5q-6 -86 -14.5 -158.5t-16.5 -160.5q-49 45 -114.5 117.5 t-131 153.5t-122 163t-89.5 147zM381 594q33 49 95.5 126t133 154.5t138 142t114.5 89.5q4 -35 8 -66.5t7.5 -65.5t6.5 -74t5 -91q-18 -25 -48 -52.5t-63 -55t-61.5 -55.5t-44.5 -52q16 -16 42.5 -51t56.5 -75t56.5 -78t40.5 -58q-6 -86 -14 -159t-16 -161q-49 45 -115 118 t-131.5 154t-121.5 162.5t-89 147.5z" />
<glyph unicode="&#xac;" horiz-adv-x="1218" d="M6 922q352 -6 705 -7h248.5t252.5 3q-10 -147 -16 -304t-4 -297q-45 -4 -113.5 -8t-140.5 -4h-44.5t-41.5 2q2 29 2 60.5v64.5v64.5t-2 64.5q-281 0 -439.5 -1t-240.5 -1h-67.5t-45 2t-30 3t-21.5 5z" />
<glyph unicode="&#xad;" horiz-adv-x="636" d="M6 496v170v84q25 4 106 8t177 4q98 0 191 -5t147 -18q2 -14 3 -40.5t1 -59.5q0 -43 -3 -86t-12 -66h-237q-90 0 -182.5 1t-190.5 8z" />
<glyph unicode="&#xae;" horiz-adv-x="1173" d="M8 621q4 125 39 246.5t109.5 217t194.5 149.5t292 42q150 -10 250 -69.5t161.5 -147.5t87 -190.5t25.5 -198.5q0 -35 -3 -66t-7 -59q-20 -119 -73.5 -223.5t-133.5 -182.5t-183 -123t-226 -45q-145 0 -248 56.5t-167.5 147.5t-93 208t-24.5 238zM227 614q-8 -111 34 -211 t122 -157q-4 59 -6 129.5t-3 139.5t-4 131.5t-10 103.5q-10 0 -29.5 -2.5t-17.5 -2.5q-4 10 -10 47t-10 70q-31 -55 -46.5 -120t-19.5 -128zM350 942q35 23 97.5 37t134.5 14q55 0 111.5 -10t100.5 -33.5t72.5 -61.5t32.5 -93q4 -90 -46 -145.5t-116 -78.5 q14 -41 58.5 -80.5t91.5 -66.5q23 35 31 65.5t18 71.5q8 39 8 90q0 74 -21.5 145.5t-65.5 128t-109.5 90.5t-153.5 32q-92 -4 -146.5 -27t-97.5 -78zM412 227q63 -34 137 -34q55 0 97 15t89 50q-61 53 -103 98t-85 99q-4 -41 2 -100.5t8 -104.5q-23 -12 -67 -15.5t-78 -7.5z M549 688q16 -6 38.5 -3t44 11.5t36 20.5t12.5 26q-2 18 -19.5 25.5t-39 9.5t-43 1t-29.5 -1v-90z" />
<glyph unicode="&#xb0;" horiz-adv-x="491" d="M6 1231q0 68 22.5 122t59.5 92t85 57.5t99 19.5q41 0 80 -13.5t69 -41t47 -72.5t17 -109q0 -68 -24.5 -123t-63.5 -96t-88 -63.5t-96 -22.5q-84 0 -145.5 61.5t-61.5 188.5zM150 1235q0 -51 24.5 -75.5t58.5 -24.5q37 0 73 34.5t36 87.5q0 51 -26.5 73t-59.5 22 q-41 0 -73.5 -31t-32.5 -86z" />
<glyph unicode="&#xb1;" horiz-adv-x="989" d="M6 446q0 12 1 29t1 37q0 41 -1 89t-1 95t1 84t5 54h250q6 20 6 63q0 53 -5 120.5t-1 121.5q20 0 49 2t79 5t130 5t207 2q2 -20 2 -63v-90.5t1 -92.5t1 -71l250 2q0 -14 1 -28.5t1 -31.5q0 -72 -5 -155.5t-9 -161.5q-10 -4 -47 -5t-80 -2t-81 -2t-48 -3q-6 -37 -6 -105 q0 -41 1 -92t3 -115q-8 -8 -164 -8h-277q-6 33 -8 70t-2 73q0 59 3 109.5t-1 71.5zM182 -6v84q25 4 106 8t177 4q98 0 191.5 -5t146.5 -17q2 -14 3 -41t1 -60q0 -43 -3 -86t-11 -65h-238q-90 0 -182 1t-191 7v170z" />
<glyph unicode="&#xb2;" horiz-adv-x="462" d="M6 1055q2 41 22.5 81t54.5 70.5t78 50t95 19.5q94 0 147.5 -44t53.5 -116q0 -39 -15 -76q-16 -47 -49 -101t-92 -110l94 7q-4 -31 3.5 -75t-3.5 -87q-29 2 -83 0t-109.5 -5t-99.5 -5t-54 2q-2 51 -5 81.5t-4 48t-1 22.5t4 9q29 14 70 39t77.5 55.5t62.5 66.5t26 75 q0 29 -11.5 39t-27.5 10q-23 0 -42.5 -17.5t-17.5 -41.5q-100 0 -135 -1t-39 3z" />
<glyph unicode="&#xb3;" horiz-adv-x="468" d="M8 854q55 4 95 4h63q-6 -18 8 -31.5t31.5 -16.5t32 5t10.5 37t-29.5 35t-56.5 6q-4 37 -5 56.5t-1 29.5v10q18 2 42.5 11.5t46 24.5t34 33.5t10.5 39.5q-4 25 -19.5 32t-33 0.5t-28.5 -20.5t-5 -31l-154 -8q-14 33 -4 68t35.5 64.5t63.5 50t79 24.5q43 4 83 -4t73 -27.5 t54.5 -49.5t27.5 -67q4 -25 -5.5 -50t-24.5 -47.5t-35.5 -42t-41.5 -32.5q37 -23 53.5 -52t16.5 -60q0 -59 -49 -110.5t-127 -61.5q-53 -6 -97.5 3t-77 32.5t-50 59.5t-15.5 85z" />
<glyph unicode="&#xb4;" horiz-adv-x="448" d="M6 1395l248 315q53 -31 103.5 -78t84.5 -100q-23 -23 -69.5 -53.5t-100 -61.5t-104.5 -58.5t-78 -43.5q-31 14 -55.5 41.5t-28.5 38.5z" />
<glyph unicode="&#xb5;" horiz-adv-x="915" d="M6 629q0 154 4 307.5t13 316.5q43 4 93 5.5t109 1.5h199q-12 -141 -22.5 -235.5t-17.5 -162t-11 -118t-4 -101.5q0 -53 3 -114.5t13 -155.5q12 -31 26.5 -31t26 15.5t19.5 40t8 42.5q4 27 10 84.5t12.5 131t13.5 157.5t12 165t8 154.5t3 124.5h144q80 0 128 -1t72.5 -3 t32.5 -4t8 -4q-8 -98 -18 -221t-18.5 -255t-13.5 -264t-5 -251q0 -117 6 -209q-14 -12 -47 -22.5t-72 -17.5t-77.5 -11t-65.5 -4q-18 33 -18 48t-13 25q-74 -74 -190 -73q-2 -10 -2 -26.5v-35.5v-80q0 -31 -1 -57.5t-5 -36.5q-41 -10 -103.5 -17t-118.5 -7q-33 0 -58.5 3 t-41.5 11q-23 236 -32 452t-9 433z" />
<glyph unicode="&#xb6;" horiz-adv-x="1146" d="M6 891q0 104 49 173t131 111t188.5 58t219.5 16q76 0 152.5 -6t148.5 -16t134.5 -23.5t111.5 -27.5q0 -23 -3 -59t-6.5 -74.5t-6.5 -72.5t-5 -52l-190 26l-94 -936q-2 -8 -16.5 -10t-48.5 -2t-88 2t-136 2q12 174 22.5 309t18.5 235.5t15 171t11 118.5q10 111 17 135h-60 l-104 -969q-16 0 -54 2t-81 4t-84 4t-66 2q-2 -4 0 41t6.5 114t10.5 149.5t10 150.5t7 116t1 46q-102 23 -156.5 82t-54.5 180z" />
<glyph unicode="&#xb7;" horiz-adv-x="288" d="M6 643q0 59 47 93t107 34q47 0 85 -23.5t38 -78.5q0 -29 -14.5 -53.5t-37 -42t-51 -27.5t-55.5 -10q-47 0 -83 26.5t-36 81.5z" />
<glyph unicode="&#xb8;" horiz-adv-x="587" d="M6 -342q8 18 26.5 38.5t40 40t42 33t32.5 15.5q6 -8 13.5 -24.5t21 -34t35 -30.5t55.5 -13q47 0 47 34q0 23 -20 46.5t-51 29.5q0 23 4 55.5t10 64.5t12.5 58.5t10.5 36.5h135h67q0 -29 -6 -58.5t-4 -60.5q66 -29 87.5 -78t13.5 -102q-8 -57 -35 -100t-66 -72t-87 -43 t-97 -14q-90 0 -170 44t-117 134z" />
<glyph unicode="&#xb9;" horiz-adv-x="417" d="M6 1137q57 47 89 73.5t48.5 40t22.5 16.5t14 3q16 0 62.5 -3t156.5 -3q-4 -49 -14 -105.5t-20.5 -113t-18.5 -107.5t-8 -90q12 -4 34.5 -3t39.5 -3q0 -41 -4.5 -81t-8.5 -85q-78 -4 -171 -4t-193 -2q0 18 -1 38.5t-1 43.5q0 45 6 88q31 0 51.5 -1t42.5 -1q4 41 12.5 97 t6.5 109q-4 0 -15.5 -7t-27.5 -13q-8 6 -24.5 19.5t-34 31t-31 33.5t-13.5 29z" />
<glyph unicode="&#xba;" horiz-adv-x="489" d="M6 969q0 43 14.5 96t44 101t75.5 81t112 35q78 2 125 -30.5t71.5 -83t29.5 -106.5t1 -99q-4 -35 -17 -86.5t-41 -98.5t-72.5 -80.5t-110.5 -33.5q-78 -2 -124 29.5t-70 79.5t-31 101.5t-7 94.5zM76 958q0 -119 45 -174t104 -55q61 0 119 57t74 166q8 63 -1 110.5 t-33 79.5t-55.5 48t-66.5 16t-67.5 -15t-59 -46t-43 -78t-16.5 -109zM150 971q2 25 8 52.5t18 51t32.5 41t53.5 21.5q29 4 48.5 -9.5t30.5 -37t15 -52t4 -57.5q-2 -29 -10 -60.5t-22.5 -58t-34.5 -44t-45 -17.5q-31 0 -51.5 20.5t-30.5 48t-14.5 56t-1.5 45.5zM213 952 q0 -35 8 -62.5t27 -31.5q12 -2 22.5 9.5t17.5 31t10 43t3 47.5q0 35 -8.5 62.5t-26.5 31.5q-12 2 -22.5 -9t-17.5 -30.5t-10 -43t-3 -48.5z" />
<glyph unicode="&#xbb;" horiz-adv-x="894" d="M6 809q2 51 5 91t6 74t7.5 65.5t8.5 66.5q45 -25 113.5 -89.5t139 -142t133 -154.5t95.5 -126q-33 -66 -89 -147.5t-121.5 -162.5t-131.5 -154t-115 -118q-8 88 -16 161t-14 159q14 20 40.5 58t55.5 78t56.5 75t43.5 51q-16 25 -46 52.5t-61.5 55t-61 55t-48.5 52.5z M381 821q2 51 4 91t5 74t7 65.5t9 66.5q45 -25 114.5 -89t140 -142t133 -155t95.5 -126q-33 -66 -89.5 -147.5t-122 -162.5t-131 -153.5t-114.5 -117.5q-8 88 -16 160.5t-15 158.5q14 20 40 58t55.5 78t57.5 75t44 51q-16 25 -46 52.5t-61.5 55t-62.5 55.5t-47 52z" />
<glyph unicode="&#xbf;" horiz-adv-x="724" d="M6 23q0 35 7.5 73.5t23.5 79.5q-10 0 27.5 -10t87 -27.5t93.5 -37t44 -35.5q-10 -39 -7 -69t15 -51.5t30.5 -32.5t39.5 -11q33 0 59.5 30.5t26.5 98.5q0 59 -25 98t-64.5 61.5t-91 32.5t-102.5 15q16 127 24.5 220t34.5 165q33 -2 68 -3.5t63.5 -3.5t49 -5t26.5 -9v-205 q66 -20 118 -66t89 -107.5t56.5 -132.5t19.5 -140q0 -59 -15.5 -114.5t-48 -98.5t-83 -70.5t-119.5 -29.5q-80 -2 -160 24.5t-143.5 77.5t-103.5 122.5t-40 160.5zM225 852q0 47 30 85t89 44q35 2 61.5 -9t45 -32.5t27.5 -48.5t9 -53q0 -59 -30.5 -93t-94.5 -34 q-66 0 -101.5 44t-35.5 97z" />
<glyph unicode="&#xc0;" d="M6 33q88 254 155.5 442.5t117 322.5t84 222t56 140t33 76t15.5 30q16 2 37.5 2h46.5q49 0 108.5 -1t120.5 -1q8 -37 19.5 -127t35 -238.5t64.5 -359.5t107 -492q-12 -10 -58.5 -21.5t-98.5 -19.5t-98 -11t-59 3q-4 2 -7 14.5t-9 41t-15.5 76.5t-23.5 122q-20 4 -59 4 q-25 0 -54.5 -1t-57.5 -2t-49.5 -3t-33.5 -2q-12 -25 -25.5 -57.5t-28 -67.5t-26.5 -67.5t-22 -57.5q-2 0 -15.5 2t-45.5 7t-83 11.5t-131 12.5zM322 1581q45 45 103 81t118 54l176 -358q-6 -10 -35.5 -32t-62.5 -30q-25 20 -69 58.5t-90 79.5t-86 80.5t-54 66.5zM508 541 q14 -4 39.5 -5t36.5 9q4 37 -3.5 87t-11.5 81q-8 -12 -18 -36t-20.5 -50.5t-16.5 -50t-6 -35.5z" />
<glyph unicode="&#xc1;" d="M6 33q88 254 155.5 442.5t117 322.5t84 222t56 140t33 76t15.5 30q16 2 37.5 2h46.5q49 0 108.5 -1t120.5 -1q8 -37 19.5 -127t35 -238.5t64.5 -359.5t107 -492q-12 -10 -58.5 -21.5t-98.5 -19.5t-98 -11t-59 3q-4 2 -7 14.5t-9 41t-15.5 76.5t-23.5 122q-20 4 -59 4 q-25 0 -54.5 -1t-57.5 -2t-49.5 -3t-33.5 -2q-12 -25 -25.5 -57.5t-28 -67.5t-26.5 -67.5t-22 -57.5q-2 0 -15.5 2t-45.5 7t-83 11.5t-131 12.5zM449 1384l247 316q53 -31 103.5 -78t85.5 -100q-23 -23 -70 -53.5t-100 -61.5t-104.5 -58.5t-78.5 -43.5q-31 14 -55 41.5 t-28 37.5zM508 541q14 -4 39.5 -5t36.5 9q4 37 -3.5 87t-11.5 81q-8 -12 -18 -36t-20.5 -50.5t-16.5 -50t-6 -35.5z" />
<glyph unicode="&#xc2;" d="M6 33q88 254 155.5 442.5t117 322.5t84 222t56 140t33 76t15.5 30q16 2 37.5 2h46.5q49 0 108.5 -1t120.5 -1q8 -37 19.5 -127t35 -238.5t64.5 -359.5t107 -492q-12 -10 -58.5 -21.5t-98.5 -19.5t-98 -11t-59 3q-4 2 -7 14.5t-9 41t-15.5 76.5t-23.5 122q-20 4 -59 4 q-25 0 -54.5 -1t-57.5 -2t-49.5 -3t-33.5 -2q-12 -25 -25.5 -57.5t-28 -67.5t-26.5 -67.5t-22 -57.5q-2 0 -15.5 2t-45.5 7t-83 11.5t-131 12.5zM311 1368q16 29 51 72t76 87t82 82t70 60q33 -23 78 -62.5t90 -85.5t83.5 -92t63.5 -81q-47 -4 -94 -20.5t-94 -20.5 q-10 8 -26.5 28.5t-34 43t-34 44t-24.5 31.5q-12 -10 -27.5 -29.5t-31 -42t-29.5 -44t-25 -35.5q-51 12 -96 32.5t-78 32.5zM508 541q14 -4 39.5 -5t36.5 9q4 37 -3.5 87t-11.5 81q-8 -12 -18 -36t-20.5 -50.5t-16.5 -50t-6 -35.5z" />
<glyph unicode="&#xc3;" d="M6 33q88 254 155.5 442.5t117 322.5t84 222t56 140t33 76t15.5 30q16 2 37.5 2h46.5q49 0 108.5 -1t120.5 -1q8 -37 19.5 -127t35 -238.5t64.5 -359.5t107 -492q-12 -10 -58.5 -21.5t-98.5 -19.5t-98 -11t-59 3q-4 2 -7 14.5t-9 41t-15.5 76.5t-23.5 122q-20 4 -59 4 q-25 0 -54.5 -1t-57.5 -2t-49.5 -3t-33.5 -2q-12 -25 -25.5 -57.5t-28 -67.5t-26.5 -67.5t-22 -57.5q-2 0 -15.5 2t-45.5 7t-83 11.5t-131 12.5zM338 1509q29 43 67.5 68t83.5 25q70 0 134 -66q20 -20 44.5 -33.5t49.5 -13.5q23 0 45 13.5t39 47.5q10 0 25.5 -17t30.5 -40 t27.5 -45.5t16.5 -30.5q-20 -53 -63 -75.5t-93 -22.5q-59 0 -104 24q-35 14 -61.5 26.5t-55.5 12.5q-41 0 -84 -34q-6 6 -22.5 29.5t-33.5 51t-31.5 51t-14.5 29.5zM508 541q14 -4 39.5 -5t36.5 9q4 37 -3.5 87t-11.5 81q-8 -12 -18 -36t-20.5 -50.5t-16.5 -50t-6 -35.5z " />
<glyph unicode="&#xc4;" d="M6 33q88 254 155.5 442.5t117 322.5t84 222t56 140t33 76t15.5 30q16 2 37.5 2h46.5q49 0 108.5 -1t120.5 -1q8 -37 19.5 -127t35 -238.5t64.5 -359.5t107 -492q-12 -10 -58.5 -21.5t-98.5 -19.5t-98 -11t-59 3q-4 2 -7 14.5t-9 41t-15.5 76.5t-23.5 122q-20 4 -59 4 q-25 0 -54.5 -1t-57.5 -2t-49.5 -3t-33.5 -2q-12 -25 -25.5 -57.5t-28 -67.5t-26.5 -67.5t-22 -57.5q-2 0 -15.5 2t-45.5 7t-83 11.5t-131 12.5zM332 1442q0 78 46 120t103 42q47 0 83 -30t36 -97q0 -37 -14.5 -69t-36 -53.5t-49 -33.5t-54.5 -12q-47 0 -80.5 32.5 t-33.5 100.5zM508 541q14 -4 39.5 -5t36.5 9q4 37 -3.5 87t-11.5 81q-8 -12 -18 -36t-20.5 -50.5t-16.5 -50t-6 -35.5zM655 1452q0 74 45 116t103 42q47 0 84 -29t37 -98q0 -37 -14.5 -68t-36 -53.5t-49 -34.5t-54.5 -12q-47 0 -81 33.5t-34 103.5z" />
<glyph unicode="&#xc5;" d="M6 33q88 254 155.5 442.5t117 322.5t84 222t56 140t33 76t15.5 30q16 2 37.5 2h46.5q49 0 108.5 -1t120.5 -1q8 -37 19.5 -127t35 -238.5t64.5 -359.5t107 -492q-12 -10 -58.5 -21.5t-98.5 -19.5t-98 -11t-59 3q-4 2 -7 14.5t-9 41t-15.5 76.5t-23.5 122q-20 4 -59 4 q-25 0 -54.5 -1t-57.5 -2t-49.5 -3t-33.5 -2q-12 -25 -25.5 -57.5t-28 -67.5t-26.5 -67.5t-22 -57.5q-2 0 -15.5 2t-45.5 7t-83 11.5t-131 12.5zM446 1456q0 47 16.5 84t44.5 62.5t63.5 39t72.5 13.5q61 0 109.5 -37t48.5 -123q0 -47 -18.5 -85t-48 -65.5t-65.5 -43 t-71 -15.5q-59 0 -105.5 42t-46.5 128zM508 541q14 -4 39.5 -5t36.5 9q4 37 -3.5 87t-11.5 81q-8 -12 -18 -36t-20.5 -50.5t-16.5 -50t-6 -35.5z" />
<glyph unicode="&#xc6;" horiz-adv-x="1169" d="M6 33q88 254 155.5 442.5t117 322.5t84 222t56 140t33 76t15.5 30q78 -6 125 -8.5t82 -2.5q39 0 71.5 2.5t78.5 6.5t119 8t192 8l12 -307q-6 -6 -17.5 -7t-41 -2t-85 -3.5t-151.5 -10.5q0 -23 1 -36t3 -48q20 -2 50 1t60.5 7.5t60.5 6.5t52 0q4 -18 6 -62.5t2 -93.5v-76 v-50t3 -36q-35 -4 -99.5 -5t-116.5 -11l11 -232q27 4 61.5 9.5t70.5 8.5t70.5 5t63.5 2q12 -80 12 -170q0 -57 -6 -119q-227 -41 -338.5 -50t-126.5 -1q-4 2 -7 14.5t-9 41t-15.5 76.5t-23.5 122q-20 4 -59 4q-25 0 -54.5 -1t-57.5 -2t-49.5 -3t-33.5 -2 q-12 -25 -25.5 -57.5t-28 -67.5t-26.5 -67.5t-22 -57.5q-2 0 -15.5 2t-45.5 7t-83 11.5t-131 12.5zM508 541q14 -4 39.5 -5t36.5 9q4 37 -3.5 87t-11.5 81q-8 -12 -18 -36t-20.5 -50.5t-16.5 -50t-6 -35.5z" />
<glyph unicode="&#xc7;" horiz-adv-x="755" d="M6 -285q12 14 30.5 34t39 38t40 33.5t31.5 21.5q6 -8 13.5 -24.5t21 -33.5t35 -30.5t55.5 -13.5q47 0 47 35q0 23 -20 46t-51 29q2 45 12 94.5t10 78.5q-74 25 -117.5 79t-67.5 127.5t-32 160.5t-8 177q0 53 8 126t27.5 151t52.5 154.5t83 137t116.5 98.5t156.5 38 q82 0 132.5 -34t79 -89t39 -124t10.5 -138q0 -31 -1 -59.5t-4 -57.5l-217 -8q-4 16 -3 45t-3 56.5t-15 48t-38 20.5q-31 0 -56.5 -40t-45 -94.5t-29.5 -106.5t-10 -77q0 -12 -1 -37.5t-1 -56.5q0 -35 2 -71.5t8 -67.5t17.5 -51.5t29.5 -22.5q29 -2 36 30t7 73q0 27 -1 51 t-1 45q23 0 58.5 -1t75.5 -5t80 -10.5t69 -16.5q4 -61 -6.5 -133t-37 -136.5t-71.5 -114.5t-109 -73q0 -12 -2 -18t-3 -11t-1 -11.5v-20.5q47 -33 68.5 -75t21.5 -89q0 -43 -16 -86t-46 -78t-71 -59.5t-88 -32.5q-49 -8 -101 0t-98.5 30.5t-83 60.5t-57.5 89z" />
<glyph unicode="&#xc8;" horiz-adv-x="741" d="M6 250q18 10 40 10t42 10q0 57 2 147.5t5 185.5t5 183t2 142q-23 2 -41 -2t-34 -2q-4 23 -4 50v56q0 45 1 93t1 91q-18 -2 34 5.5t152 19.5t235.5 24.5t280.5 20.5q4 0 5 -15.5t1 -19.5l2 -270q-6 -6 -20.5 -7t-49 -2t-94 -4t-155.5 -12q0 -23 -1 -40t1 -52q20 -2 46.5 2 t54.5 8.5t54.5 7.5t49.5 1q4 -18 6 -62.5t2 -93.5v-76v-50t2 -36q-35 -4 -99.5 -5t-115.5 -11v-238q27 4 62.5 9.5t74.5 10.5t75 8t64 3q12 -80 13 -170q0 -57 -7 -119q25 -2 -14 -7t-128 -14.5t-222 -23t-295 -33.5q-2 20 -7 59.5t-11.5 80.5t-10.5 78.5t-4 58.5zM184 1581 q45 45 103.5 81t118.5 54l176 -358q-6 -10 -36 -32t-63 -30q-25 20 -68.5 58.5t-89.5 79.5t-86 80.5t-55 66.5z" />
<glyph unicode="&#xc9;" horiz-adv-x="741" d="M6 250q18 10 40 10t42 10q0 57 2 147.5t5 185.5t5 183t2 142q-23 2 -41 -2t-34 -2q-4 23 -4 50v56q0 45 1 93t1 91q-18 -2 34 5.5t152 19.5t235.5 24.5t280.5 20.5q4 0 5 -15.5t1 -19.5l2 -270q-6 -6 -20.5 -7t-49 -2t-94 -4t-155.5 -12q0 -23 -1 -40t1 -52q20 -2 46.5 2 t54.5 8.5t54.5 7.5t49.5 1q4 -18 6 -62.5t2 -93.5v-76v-50t2 -36q-35 -4 -99.5 -5t-115.5 -11v-238q27 4 62.5 9.5t74.5 10.5t75 8t64 3q12 -80 13 -170q0 -57 -7 -119q25 -2 -14 -7t-128 -14.5t-222 -23t-295 -33.5q-2 20 -7 59.5t-11.5 80.5t-10.5 78.5t-4 58.5zM236 1362 l247 315q53 -31 103.5 -78t85.5 -100q-23 -23 -70 -53.5t-100 -61t-104.5 -58.5t-78.5 -44q-31 14 -55 42t-28 38z" />
<glyph unicode="&#xca;" horiz-adv-x="741" d="M6 250q18 10 40 10t42 10q0 57 2 147.5t5 185.5t5 183t2 142q-23 2 -41 -2t-34 -2q-4 23 -4 50v56q0 45 1 93t1 91q-18 -2 34 5.5t152 19.5t235.5 24.5t280.5 20.5q4 0 5 -15.5t1 -19.5l2 -270q-6 -6 -20.5 -7t-49 -2t-94 -4t-155.5 -12q0 -23 -1 -40t1 -52q20 -2 46.5 2 t54.5 8.5t54.5 7.5t49.5 1q4 -18 6 -62.5t2 -93.5v-76v-50t2 -36q-35 -4 -99.5 -5t-115.5 -11v-238q27 4 62.5 9.5t74.5 10.5t75 8t64 3q12 -80 13 -170q0 -57 -7 -119q25 -2 -14 -7t-128 -14.5t-222 -23t-295 -33.5q-2 20 -7 59.5t-11.5 80.5t-10.5 78.5t-4 58.5zM86 1364 q16 29 51 72t76 87t82 81.5t70 60.5q33 -23 77.5 -62.5t90 -86t84 -92.5t63.5 -81q-47 -4 -94 -20t-94 -20q-10 8 -26.5 28.5t-34 43t-34 44t-24.5 31.5q-12 -10 -27.5 -29.5t-31 -42t-30 -44t-24.5 -36.5q-51 12 -96 33t-78 33z" />
<glyph unicode="&#xcb;" horiz-adv-x="741" d="M6 250q18 10 40 10t42 10q0 57 2 147.5t5 185.5t5 183t2 142q-23 2 -41 -2t-34 -2q-4 23 -4 50v56q0 45 1 93t1 91q-18 -2 34 5.5t152 19.5t235.5 24.5t280.5 20.5q4 0 5 -15.5t1 -19.5l2 -270q-6 -6 -20.5 -7t-49 -2t-94 -4t-155.5 -12q0 -23 -1 -40t1 -52q20 -2 46.5 2 t54.5 8.5t54.5 7.5t49.5 1q4 -18 6 -62.5t2 -93.5v-76v-50t2 -36q-35 -4 -99.5 -5t-115.5 -11v-238q27 4 62.5 9.5t74.5 10.5t75 8t64 3q12 -80 13 -170q0 -57 -7 -119q25 -2 -14 -7t-128 -14.5t-222 -23t-295 -33.5q-2 20 -7 59.5t-11.5 80.5t-10.5 78.5t-4 58.5zM88 1436 q0 78 46 119.5t104 41.5q47 0 82.5 -29.5t35.5 -97.5q0 -37 -14 -68.5t-35.5 -53t-49.5 -33.5t-54 -12q-47 0 -81 32.5t-34 100.5zM412 1446q0 74 45 116t102 42q47 0 84 -29t37 -98q0 -37 -14.5 -68t-36 -53.5t-49 -34.5t-54.5 -12q-47 0 -80.5 33.5t-33.5 103.5z" />
<glyph unicode="&#xcc;" horiz-adv-x="927" d="M6 4v90q0 66 1 127.5t3 89.5l250 -8q4 14 9 58.5t10.5 103.5t10.5 130t10 136.5t9 120.5t10 86l-62.5 5t-76.5 6t-72.5 6t-50.5 8q-6 14 -3 56t7.5 90t10.5 93t6 64q61 -4 129.5 -10.5t163 -12.5t226.5 -10t323 -4q4 -35 -7.5 -125t-27.5 -201q0 -2 -34 0t-76 4t-75.5 4 t-33.5 0q-10 -43 -24.5 -119.5t-30 -164.5t-26 -177.5t-10.5 -154.5h158h68v-51t-2 -72t-6.5 -79t-10.5 -70q-186 -10 -378.5 -10.5t-397.5 -8.5zM256 1546q45 45 103.5 81t117.5 54l176 -358q-6 -10 -35.5 -31.5t-62.5 -29.5q-25 20 -69 58t-90 79t-86 81t-54 66z" />
<glyph unicode="&#xcd;" horiz-adv-x="927" d="M6 4v90q0 66 1 127.5t3 89.5l250 -8q4 14 9 58.5t10.5 103.5t10.5 130t10 136.5t9 120.5t10 86l-62.5 5t-76.5 6t-72.5 6t-50.5 8q-6 14 -3 56t7.5 90t10.5 93t6 64q61 -4 129.5 -10.5t163 -12.5t226.5 -10t323 -4q4 -35 -7.5 -125t-27.5 -201q0 -2 -34 0t-76 4t-75.5 4 t-33.5 0q-10 -43 -24.5 -119.5t-30 -164.5t-26 -177.5t-10.5 -154.5h158h68v-51t-2 -72t-6.5 -79t-10.5 -70q-186 -10 -378.5 -10.5t-397.5 -8.5zM356 1358l248 315q53 -31 103.5 -78t85.5 -100q-23 -23 -70 -53.5t-100.5 -61t-104.5 -58.5t-78 -44q-31 14 -55.5 42 t-28.5 38z" />
<glyph unicode="&#xce;" horiz-adv-x="927" d="M6 4v90q0 66 1 127.5t3 89.5l250 -8q4 14 9 58.5t10.5 103.5t10.5 130t10 136.5t9 120.5t10 86l-62.5 5t-76.5 6t-72.5 6t-50.5 8q-6 14 -3 56t7.5 90t10.5 93t6 64q61 -4 129.5 -10.5t163 -12.5t226.5 -10t323 -4q4 -35 -7.5 -125t-27.5 -201q0 -2 -34 0t-76 4t-75.5 4 t-33.5 0q-10 -43 -24.5 -119.5t-30 -164.5t-26 -177.5t-10.5 -154.5h158h68v-51t-2 -72t-6.5 -79t-10.5 -70q-186 -10 -378.5 -10.5t-397.5 -8.5zM219 1343q16 29 51 72t76 87t82 82t70 61q33 -23 78 -63t90 -86t83.5 -92t63.5 -81q-47 -4 -94 -20.5t-94 -20.5 q-10 8 -26.5 28.5t-34 43t-34 44t-24.5 32.5q-12 -10 -27.5 -30t-31 -42.5t-30 -44t-24.5 -35.5q-51 12 -96 32.5t-78 32.5z" />
<glyph unicode="&#xcf;" horiz-adv-x="927" d="M6 4v90q0 66 1 127.5t3 89.5l250 -8q4 14 9 58.5t10.5 103.5t10.5 130t10 136.5t9 120.5t10 86l-62.5 5t-76.5 6t-72.5 6t-50.5 8q-6 14 -3 56t7.5 90t10.5 93t6 64q61 -4 129.5 -10.5t163 -12.5t226.5 -10t323 -4q4 -35 -7.5 -125t-27.5 -201q0 -2 -34 0t-76 4t-75.5 4 t-33.5 0q-10 -43 -24.5 -119.5t-30 -164.5t-26 -177.5t-10.5 -154.5h158h68v-51t-2 -72t-6.5 -79t-10.5 -70q-186 -10 -378.5 -10.5t-397.5 -8.5zM236 1413q0 78 46 120t103 42q47 0 83 -29.5t36 -97.5q0 -37 -14.5 -68.5t-36 -53t-49 -34t-54.5 -12.5q-47 0 -80.5 32.5 t-33.5 100.5zM559 1423q0 74 45 116t103 42q47 0 83.5 -28.5t36.5 -98.5q0 -37 -14 -67.5t-35.5 -53t-49.5 -35t-54 -12.5q-47 0 -81 33.5t-34 103.5z" />
<glyph unicode="&#xd0;" horiz-adv-x="950" d="M6 512v170v84q4 4 46 6t104 4q2 41 3 81t-1 77q-16 10 -32.5 8t-29.5 2q-6 12 -6 60.5t4 102.5t9.5 99t5.5 56q35 4 70.5 6t70.5 2q137 0 264 -33t223.5 -102.5t151.5 -175t53 -250.5q-4 -174 -58.5 -306.5t-143.5 -221.5t-203.5 -134t-237.5 -45q-147 0 -287 61 q4 66 6 136.5t17 156.5q27 2 48 0t46 0q2 35 5 72t7 78q-61 0 -135 6zM416 365q37 8 69.5 37.5t59 69.5t45 87t24.5 94q6 41 2 80t-20 68.5t-45 48t-74 18.5l-12 -98q27 -2 49.5 -5t40.5 -7q2 -14 3 -41t1 -60q0 -43 -3 -86t-11 -65q-31 0 -58.5 -1t-54.5 -1z" />
<glyph unicode="&#xd1;" horiz-adv-x="1101" d="M6 4q8 135 13.5 208t8.5 113t4 59t3 44t5 70t9 137t15.5 243.5t23.5 389.5q47 2 97.5 3t103.5 1q80 0 159.5 -3t151.5 -9l55 -635q6 0 13.5 36.5t20.5 115.5t36 205t59 308q16 6 57.5 3t89.5 -11t93 -18.5t70 -18.5v-15t-8.5 -43t-25 -105.5t-47 -204t-76.5 -336 t-112 -500.5q-29 -4 -61.5 -4h-67.5q-47 0 -96 1t-98 -1q-18 82 -41 186.5t-43.5 202.5t-34.5 176t-14 107q-6 -51 -18.5 -148.5t-28 -205t-29.5 -207t-25 -152.5q-59 0 -125.5 2t-136.5 6zM319 1524q29 43 68 67.5t84 24.5q70 0 133 -66q20 -20 45 -33.5t49 -13.5 q23 0 45.5 13.5t38.5 48.5q10 0 25.5 -17.5t31 -40t28 -45t16.5 -30.5q-20 -53 -63.5 -76t-92.5 -23q-59 0 -104 25q-35 14 -61.5 26.5t-55.5 12.5q-41 0 -84 -35q-6 6 -22.5 29.5t-34 51t-32 51.5t-14.5 30z" />
<glyph unicode="&#xd2;" horiz-adv-x="737" d="M6 731q0 86 12.5 174t46 165t92 132t148.5 74q31 6 60 6q96 0 165.5 -61.5t113.5 -151.5t65.5 -193.5t21.5 -187.5q0 -49 -4 -116.5t-14.5 -141.5t-30.5 -147.5t-53 -135t-80 -103.5t-113 -50q-115 -16 -191.5 41t-124.5 150.5t-71.5 202t-34.5 194.5q-4 35 -6 71.5 t-2 77.5zM29 1583q45 45 103 81t118 54l176 -358q-6 -10 -35.5 -32t-62.5 -30q-25 20 -69 58.5t-90 79.5t-86 80.5t-54 66.5zM322 698q0 -49 6 -102t16 -96t25.5 -71t33.5 -30q29 -2 41.5 49.5t12.5 122.5q0 49 -5.5 101.5t-16.5 95.5t-26.5 70.5t-33.5 27.5q-29 2 -41 -48 t-12 -120z" />
<glyph unicode="&#xd3;" horiz-adv-x="737" d="M6 731q0 86 12.5 174t46 165t92 132t148.5 74q31 6 60 6q96 0 165.5 -61.5t113.5 -151.5t65.5 -193.5t21.5 -187.5q0 -49 -4 -116.5t-14.5 -141.5t-30.5 -147.5t-53 -135t-80 -103.5t-113 -50q-115 -16 -191.5 41t-124.5 150.5t-71.5 202t-34.5 194.5q-4 35 -6 71.5 t-2 77.5zM229 1393l248 315q53 -31 103.5 -78t85.5 -100q-23 -23 -70 -53.5t-100.5 -61.5t-104.5 -58.5t-78 -43.5q-31 14 -55.5 41.5t-28.5 38.5zM322 698q0 -49 6 -102t16 -96t25.5 -71t33.5 -30q29 -2 41.5 49.5t12.5 122.5q0 49 -5.5 101.5t-16.5 95.5t-26.5 70.5 t-33.5 27.5q-29 2 -41 -48t-12 -120z" />
<glyph unicode="&#xd4;" horiz-adv-x="737" d="M6 731q0 86 12.5 174t46 165t92 132t148.5 74q31 6 60 6q96 0 165.5 -61.5t113.5 -151.5t65.5 -193.5t21.5 -187.5q0 -49 -4 -116.5t-14.5 -141.5t-30.5 -147.5t-53 -135t-80 -103.5t-113 -50q-115 -16 -191.5 41t-124.5 150.5t-71.5 202t-34.5 194.5q-4 35 -6 71.5 t-2 77.5zM63 1364q16 29 51.5 72t76 87t81.5 81.5t70 60.5q33 -23 78 -62.5t90 -86t83.5 -92.5t63.5 -81q-47 -4 -94 -20t-94 -20q-10 8 -26.5 28.5t-34 43t-34 44t-24.5 31.5q-12 -10 -27.5 -29.5t-31 -42t-29.5 -44t-24 -36.5q-51 12 -96.5 33t-78.5 33zM322 698 q0 -49 6 -102t16 -96t25.5 -71t33.5 -30q29 -2 41.5 49.5t12.5 122.5q0 49 -5.5 101.5t-16.5 95.5t-26.5 70.5t-33.5 27.5q-29 2 -41 -48t-12 -120z" />
<glyph unicode="&#xd5;" horiz-adv-x="737" d="M6 731q0 86 12.5 174t46 165t92 132t148.5 74q31 6 60 6q96 0 165.5 -61.5t113.5 -151.5t65.5 -193.5t21.5 -187.5q0 -49 -4 -116.5t-14.5 -141.5t-30.5 -147.5t-53 -135t-80 -103.5t-113 -50q-115 -16 -191.5 41t-124.5 150.5t-71.5 202t-34.5 194.5q-4 35 -6 71.5 t-2 77.5zM78 1513q29 43 67.5 68t83.5 25q70 0 133 -66q20 -20 45 -33.5t50 -13.5q23 0 45 13.5t39 47.5q10 0 25.5 -17t30.5 -39.5t27.5 -45.5t16.5 -31q-20 -53 -63 -75.5t-93 -22.5q-59 0 -104 25q-35 14 -61.5 26t-55.5 12q-41 0 -84 -34q-6 6 -22.5 29.5t-34 51 t-31.5 51t-14 29.5zM322 698q0 -49 6 -102t16 -96t25.5 -71t33.5 -30q29 -2 41.5 49.5t12.5 122.5q0 49 -5.5 101.5t-16.5 95.5t-26.5 70.5t-33.5 27.5q-29 2 -41 -48t-12 -120z" />
<glyph unicode="&#xd6;" horiz-adv-x="737" d="M6 731q0 86 12.5 174t46 165t92 132t148.5 74q31 6 60 6q96 0 165.5 -61.5t113.5 -151.5t65.5 -193.5t21.5 -187.5q0 -49 -4 -116.5t-14.5 -141.5t-30.5 -147.5t-53 -135t-80 -103.5t-113 -50q-115 -16 -191.5 41t-124.5 150.5t-71.5 202t-34.5 194.5q-4 35 -6 71.5 t-2 77.5zM63 1436q0 78 46.5 119.5t103.5 41.5q47 0 83 -29.5t36 -97.5q0 -37 -14.5 -68.5t-36 -53t-49 -33.5t-54.5 -12q-47 0 -81 32.5t-34 100.5zM322 698q0 -49 6 -102t16 -96t25.5 -71t33.5 -30q29 -2 41.5 49.5t12.5 122.5q0 49 -5.5 101.5t-16.5 95.5t-26.5 70.5 t-33.5 27.5q-29 2 -41 -48t-12 -120zM387 1446q0 74 45 116t103 42q47 0 83.5 -29t36.5 -98q0 -37 -14 -68t-35.5 -53.5t-49.5 -34.5t-54 -12q-47 0 -81 33.5t-34 103.5z" />
<glyph unicode="&#xd7;" horiz-adv-x="880" d="M6 733q12 18 25.5 42t38 66t66.5 108.5t110 168.5q14 -12 41.5 -43t59.5 -65.5t61.5 -66.5t46.5 -50l155 223q47 -49 107.5 -123.5t118.5 -146.5q-8 -12 -34 -49t-54.5 -79t-53 -79t-28.5 -45q20 -35 72.5 -74t135.5 -117q0 -12 -63 -92t-180 -256q-29 27 -58.5 58.5 t-56.5 61.5t-48.5 52.5t-31.5 32.5l-133 -211q-20 25 -56 64t-74 79.5t-69.5 76.5t-40.5 53l152 196q-10 18 -35.5 44t-57.5 55.5t-63.5 59.5t-52.5 56z" />
<glyph unicode="&#xd8;" horiz-adv-x="960" d="M6 53q31 59 61.5 118.5t65.5 119.5q-25 74 -39 150.5t-22 140.5q-4 35 -6.5 71.5t-2.5 77.5q0 86 12.5 174t46.5 165t92 132t148 74q31 6 60 6q72 0 127 -34t98 -91q29 47 54.5 92t52.5 92q14 -8 41.5 -24.5t57.5 -35.5t56.5 -40.5t38.5 -40.5q6 4 2 -9t-24.5 -49 t-59.5 -97.5t-102 -155.5q25 -109 24 -201q0 -49 -4 -116.5t-14 -141.5t-30.5 -147.5t-53.5 -135t-79.5 -103.5t-112.5 -50q-92 -14 -159 20.5t-114 100.5l-94 -150q-29 12 -68 36t-53 52zM365.5 746.5q-5.5 -31.5 1.5 -60.5l94 160q-17 20 -29 20q-14 0 -27.5 -17.5 t-23.5 -44t-15.5 -58zM436 416q12 -16 25 -17q23 -2 45 41t16 103z" />
<glyph unicode="&#xd9;" horiz-adv-x="886" d="M6 389q0 213 25.5 427t50.5 437q39 4 84 5.5t98 1.5h180q-25 -141 -41 -235.5t-28.5 -161t-20.5 -117t-12 -102.5t-5 -114.5t-1 -156.5q8 -31 20.5 -31t23.5 15.5t20.5 40t11.5 42.5q6 27 16 84.5t22.5 131t24.5 157.5t23.5 165t20.5 154.5t16 124.5h131q74 0 115.5 -1 t64 -3t29 -4t6.5 -4q-20 -123 -45 -280.5t-46.5 -322.5t-37 -321.5t-17.5 -275.5q-12 -12 -42.5 -22.5t-66.5 -17.5t-71 -11t-59 -4q-14 33 -13.5 48t-9.5 25q-18 -18 -48 -35.5t-62.5 -30.5t-65.5 -21.5t-59 -8.5q-76 0 -122 45t-71 110.5t-32 138.5t-7 128zM231 1581 q45 45 103.5 81t118.5 54l176 -358q-6 -10 -36 -32t-63 -30q-25 20 -68.5 58.5t-89.5 79.5t-86 80.5t-55 66.5z" />
<glyph unicode="&#xda;" horiz-adv-x="886" d="M6 389q0 213 25.5 427t50.5 437q39 4 84 5.5t98 1.5h180q-25 -141 -41 -235.5t-28.5 -161t-20.5 -117t-12 -102.5t-5 -114.5t-1 -156.5q8 -31 20.5 -31t23.5 15.5t20.5 40t11.5 42.5q6 27 16 84.5t22.5 131t24.5 157.5t23.5 165t20.5 154.5t16 124.5h131q74 0 115.5 -1 t64 -3t29 -4t6.5 -4q-20 -123 -45 -280.5t-46.5 -322.5t-37 -321.5t-17.5 -275.5q-12 -12 -42.5 -22.5t-66.5 -17.5t-71 -11t-59 -4q-14 33 -13.5 48t-9.5 25q-18 -18 -48 -35.5t-62.5 -30.5t-65.5 -21.5t-59 -8.5q-76 0 -122 45t-71 110.5t-32 138.5t-7 128zM344 1376 l248 316q53 -31 103 -78t85 -101q-23 -23 -69.5 -53t-100 -61t-104.5 -59t-78 -44q-31 14 -55.5 42t-28.5 38z" />
<glyph unicode="&#xdb;" horiz-adv-x="886" d="M6 389q0 213 25.5 427t50.5 437q39 4 84 5.5t98 1.5h180q-25 -141 -41 -235.5t-28.5 -161t-20.5 -117t-12 -102.5t-5 -114.5t-1 -156.5q8 -31 20.5 -31t23.5 15.5t20.5 40t11.5 42.5q6 27 16 84.5t22.5 131t24.5 157.5t23.5 165t20.5 154.5t16 124.5h131q74 0 115.5 -1 t64 -3t29 -4t6.5 -4q-20 -123 -45 -280.5t-46.5 -322.5t-37 -321.5t-17.5 -275.5q-12 -12 -42.5 -22.5t-66.5 -17.5t-71 -11t-59 -4q-14 33 -13.5 48t-9.5 25q-18 -18 -48 -35.5t-62.5 -30.5t-65.5 -21.5t-59 -8.5q-76 0 -122 45t-71 110.5t-32 138.5t-7 128zM231 1362 q16 29 51 72t76 87t82 81.5t70 60.5q33 -23 78 -62.5t90 -86t83.5 -92.5t63.5 -81q-45 -14 -93 -25t-95 -16q-10 8 -26.5 29t-34 43.5t-34 44t-24.5 31.5q-12 -10 -27.5 -29.5t-31 -42t-29.5 -44t-24 -36.5q-51 12 -96.5 33t-78.5 33z" />
<glyph unicode="&#xdc;" horiz-adv-x="886" d="M6 389q0 213 25.5 427t50.5 437q39 4 84 5.5t98 1.5h180q-25 -141 -41 -235.5t-28.5 -161t-20.5 -117t-12 -102.5t-5 -114.5t-1 -156.5q8 -31 20.5 -31t23.5 15.5t20.5 40t11.5 42.5q6 27 16 84.5t22.5 131t24.5 157.5t23.5 165t20.5 154.5t16 124.5h131q74 0 115.5 -1 t64 -3t29 -4t6.5 -4q-20 -123 -45 -280.5t-46.5 -322.5t-37 -321.5t-17.5 -275.5q-12 -12 -42.5 -22.5t-66.5 -17.5t-71 -11t-59 -4q-14 33 -13.5 48t-9.5 25q-18 -18 -48 -35.5t-62.5 -30.5t-65.5 -21.5t-59 -8.5q-76 0 -122 45t-71 110.5t-32 138.5t-7 128zM215 1432 q0 78 46 119.5t104 41.5q47 0 82.5 -29.5t35.5 -97.5q0 -37 -14 -68.5t-35.5 -53t-49.5 -34t-54 -12.5q-47 0 -81 33t-34 101zM539 1442q0 74 45 115.5t102 41.5q47 0 84 -28.5t37 -97.5q0 -37 -14.5 -68t-36 -53.5t-49 -34.5t-54.5 -12q-47 0 -80.5 33.5t-33.5 103.5z" />
<glyph unicode="&#xdd;" horiz-adv-x="1054" d="M8 1100q6 12 44 45t86 68.5t92 64.5t61 33q20 -31 48 -74t59.5 -89t68.5 -91t74 -78q-8 -27 50 67.5t179 272.5q25 -10 104.5 -44t174.5 -93q-16 -39 -67.5 -113t-110 -156t-107.5 -155.5t-59 -112.5q-8 -180 -13.5 -296t-7.5 -182.5t-2 -94v-33.5q-16 -12 -54 -18.5 t-83 -7.5t-86 -2t-64 -3q-8 205 -13 324t-10 183.5t-8.5 90t-5.5 43.5q-131 162 -201.5 251t-104.5 131t-39 52.5t-5 16.5zM401 1382l248 316q53 -31 103.5 -78t85.5 -100q-23 -23 -70 -53.5t-100.5 -61.5t-104.5 -58.5t-78 -43.5q-31 14 -55 41.5t-29 37.5z" />
<glyph unicode="&#xde;" horiz-adv-x="772" d="M6 1247q16 2 66.5 9.5t108 13.5t109.5 11t72 5q6 12 3 -61.5t-5 -257.5q86 2 159 -32t127 -89t86 -125t32 -141q0 -70 -25.5 -144t-80 -132t-138.5 -93t-196 -25l-21 -290q-14 -2 -48 -2h-73h-61.5t-46.5 4q-18 340 -34.5 685t-33.5 664zM342 463q35 -14 68 -14 q55 0 81.5 37.5t24.5 74.5q-2 49 -49 82t-117 21q-2 -27 -3 -48.5t-1 -45t-1 -49t-3 -58.5z" />
<glyph unicode="&#xdf;" horiz-adv-x="798" d="M6 1198q27 14 66 29.5t85 28t97 20.5t102 8q68 0 132.5 -21.5t114.5 -62.5t80 -101.5t30 -137.5q0 -53 -7.5 -91.5t-20.5 -71t-33.5 -62t-47.5 -66.5q92 -57 141.5 -150.5t45.5 -210.5q-4 -90 -38 -152.5t-86.5 -100.5t-120 -54t-136.5 -16q-18 0 -37 1t-37 3l8 227 q31 -2 62.5 -2t57 9t42 29.5t16.5 59.5q0 57 -21.5 99.5t-54 75t-69.5 59t-68 53.5q41 47 78 112.5t37 141.5q0 27 -11.5 51.5t-28.5 40t-38.5 18.5t-42.5 -14q-2 -2 -3 -8t-3 -33.5t-8 -85t-15.5 -162t-25 -263t-37.5 -390.5q-12 -4 -38 -5t-56.5 -2t-59.5 -1h-43 q0 299 -2 596t-6 602z" />
<glyph unicode="&#xe0;" d="M6 33q88 254 155.5 442.5t117 322.5t84 222t56 140t33 76t15.5 30q16 2 37.5 2h46.5q49 0 108.5 -1t120.5 -1q8 -37 19.5 -127t35 -238.5t64.5 -359.5t107 -492q-12 -10 -58.5 -21.5t-98.5 -19.5t-98 -11t-59 3q-4 2 -7 14.5t-9 41t-15.5 76.5t-23.5 122q-20 4 -59 4 q-25 0 -54.5 -1t-57.5 -2t-49.5 -3t-33.5 -2q-12 -25 -25.5 -57.5t-28 -67.5t-26.5 -67.5t-22 -57.5q-2 0 -15.5 2t-45.5 7t-83 11.5t-131 12.5zM348 1579q45 45 103.5 81t117.5 54l176 -358q-6 -10 -35.5 -32t-62.5 -30q-25 20 -68.5 58.5t-90 79.5t-86.5 80.5t-54 66.5z M508 541q14 -4 39.5 -5t36.5 9q4 37 -3.5 87t-11.5 81q-8 -12 -18 -36t-20.5 -50.5t-16.5 -50t-6 -35.5z" />
<glyph unicode="&#xe1;" d="M6 33q88 254 155.5 442.5t117 322.5t84 222t56 140t33 76t15.5 30q16 2 37.5 2h46.5q49 0 108.5 -1t120.5 -1q8 -37 19.5 -127t35 -238.5t64.5 -359.5t107 -492q-12 -10 -58.5 -21.5t-98.5 -19.5t-98 -11t-59 3q-4 2 -7 14.5t-9 41t-15.5 76.5t-23.5 122q-20 4 -59 4 q-25 0 -54.5 -1t-57.5 -2t-49.5 -3t-33.5 -2q-12 -25 -25.5 -57.5t-28 -67.5t-26.5 -67.5t-22 -57.5q-2 0 -15.5 2t-45.5 7t-83 11.5t-131 12.5zM475 1384l248 316q53 -31 103.5 -78t84.5 -100q-23 -23 -69.5 -53.5t-100 -61.5t-104.5 -58.5t-78 -43.5q-31 14 -55.5 41.5 t-28.5 37.5zM508 541q14 -4 39.5 -5t36.5 9q4 37 -3.5 87t-11.5 81q-8 -12 -18 -36t-20.5 -50.5t-16.5 -50t-6 -35.5z" />
<glyph unicode="&#xe2;" d="M6 33q88 254 155.5 442.5t117 322.5t84 222t56 140t33 76t15.5 30q16 2 37.5 2h46.5q49 0 108.5 -1t120.5 -1q8 -37 19.5 -127t35 -238.5t64.5 -359.5t107 -492q-12 -10 -58.5 -21.5t-98.5 -19.5t-98 -11t-59 3q-4 2 -7 14.5t-9 41t-15.5 76.5t-23.5 122q-20 4 -59 4 q-25 0 -54.5 -1t-57.5 -2t-49.5 -3t-33.5 -2q-12 -25 -25.5 -57.5t-28 -67.5t-26.5 -67.5t-22 -57.5q-2 0 -15.5 2t-45.5 7t-83 11.5t-131 12.5zM317 1364q16 29 51 72t76 87t82 81.5t70 60.5q33 -23 78 -62.5t90 -86t83.5 -92.5t63.5 -81q-47 -4 -94 -20t-94 -20 q-10 8 -26.5 28.5t-34 43t-34 44t-24.5 31.5q-12 -10 -27.5 -29.5t-31 -42t-29.5 -44t-24 -36.5q-51 12 -96.5 33t-78.5 33zM508 541q14 -4 39.5 -5t36.5 9q4 37 -3.5 87t-11.5 81q-8 -12 -18 -36t-20.5 -50.5t-16.5 -50t-6 -35.5z" />
<glyph unicode="&#xe3;" d="M6 33q88 254 155.5 442.5t117 322.5t84 222t56 140t33 76t15.5 30q16 2 37.5 2h46.5q49 0 108.5 -1t120.5 -1q8 -37 19.5 -127t35 -238.5t64.5 -359.5t107 -492q-12 -10 -58.5 -21.5t-98.5 -19.5t-98 -11t-59 3q-4 2 -7 14.5t-9 41t-15.5 76.5t-23.5 122q-20 4 -59 4 q-25 0 -54.5 -1t-57.5 -2t-49.5 -3t-33.5 -2q-12 -25 -25.5 -57.5t-28 -67.5t-26.5 -67.5t-22 -57.5q-2 0 -15.5 2t-45.5 7t-83 11.5t-131 12.5zM319 1513q29 43 68 68t84 25q70 0 133 -66q20 -20 45 -33.5t49 -13.5q23 0 45.5 13.5t38.5 47.5q10 0 25.5 -17t31 -39.5 t28 -45.5t16.5 -31q-20 -53 -63.5 -75.5t-92.5 -22.5q-59 0 -104 25q-35 14 -61.5 26t-55.5 12q-41 0 -84 -34q-6 6 -22.5 29.5t-34 51t-32 51t-14.5 29.5zM508 541q14 -4 39.5 -5t36.5 9q4 37 -3.5 87t-11.5 81q-8 -12 -18 -36t-20.5 -50.5t-16.5 -50t-6 -35.5z" />
<glyph unicode="&#xe4;" d="M6 33q88 254 155.5 442.5t117 322.5t84 222t56 140t33 76t15.5 30q16 2 37.5 2h46.5q49 0 108.5 -1t120.5 -1q8 -37 19.5 -127t35 -238.5t64.5 -359.5t107 -492q-12 -10 -58.5 -21.5t-98.5 -19.5t-98 -11t-59 3q-4 2 -7 14.5t-9 41t-15.5 76.5t-23.5 122q-20 4 -59 4 q-25 0 -54.5 -1t-57.5 -2t-49.5 -3t-33.5 -2q-12 -25 -25.5 -57.5t-28 -67.5t-26.5 -67.5t-22 -57.5q-2 0 -15.5 2t-45.5 7t-83 11.5t-131 12.5zM330 1436q0 78 46 119.5t103 41.5q47 0 83 -29.5t36 -97.5q0 -37 -14.5 -68.5t-36 -53t-49 -33.5t-54.5 -12q-47 0 -80.5 32.5 t-33.5 100.5zM508 541q14 -4 39.5 -5t36.5 9q4 37 -3.5 87t-11.5 81q-8 -12 -18 -36t-20.5 -50.5t-16.5 -50t-6 -35.5zM653 1446q0 74 45 116t103 42q47 0 84 -29t37 -98q0 -37 -14.5 -68t-36 -53.5t-49 -34.5t-54.5 -12q-47 0 -81 33.5t-34 103.5z" />
<glyph unicode="&#xe5;" d="M6 33q88 254 155.5 442.5t117 322.5t84 222t56 140t33 76t15.5 30q16 2 37.5 2h46.5q49 0 108.5 -1t120.5 -1q8 -37 19.5 -127t35 -238.5t64.5 -359.5t107 -492q-12 -10 -58.5 -21.5t-98.5 -19.5t-98 -11t-59 3q-4 2 -7 14.5t-9 41t-15.5 76.5t-23.5 122q-20 4 -59 4 q-25 0 -54.5 -1t-57.5 -2t-49.5 -3t-33.5 -2q-12 -25 -25.5 -57.5t-28 -67.5t-26.5 -67.5t-22 -57.5q-2 0 -15.5 2t-45.5 7t-83 11.5t-131 12.5zM451 1473q0 47 16 83.5t44 62.5t63.5 39t72.5 13q61 0 109.5 -37t48.5 -123q0 -47 -18.5 -84.5t-48 -65.5t-65.5 -43t-71 -15 q-59 0 -105 42t-46 128zM508 541q14 -4 39.5 -5t36.5 9q4 37 -3.5 87t-11.5 81q-8 -12 -18 -36t-20.5 -50.5t-16.5 -50t-6 -35.5z" />
<glyph unicode="&#xe6;" horiz-adv-x="1198" d="M8 100q0 2 2 9.5t12.5 40t34 102.5t66.5 196.5t109.5 320.5t162.5 476q16 2 64.5 7t116 9.5t149.5 9.5t165 9t159.5 8t138.5 8q2 -16 1 -56t-4 -83t-6 -82t-3 -51q-29 -4 -75 -5t-97.5 -2t-102.5 -2t-90 -3q0 -39 8 -80t12 -88q25 0 58 3t66.5 6t66.5 6t55 1 q2 -10 3 -38.5t1 -69.5q0 -35 -1 -77t-3 -91q-8 -4 -38.5 -8.5t-66.5 -8.5t-65.5 -7t-34.5 -5q0 -10 3.5 -32.5t7.5 -49.5t9 -55.5t11 -52.5q31 4 66 15t70.5 22.5t68.5 20.5t59 9l6.5 -52t6.5 -81t4 -96t2 -99q-47 -18 -112.5 -35.5t-137.5 -31.5t-143.5 -24.5 t-128.5 -12.5q-12 14 -21.5 55t-15.5 91.5t-12.5 100.5t-14.5 81q-53 0 -106.5 -3t-114.5 -8q-8 -4 -20.5 -38.5t-27 -81.5t-29.5 -95.5t-30 -78.5q-100 20 -154.5 34.5t-79 23.5t-27.5 13t-3 6zM494 606q16 0 31.5 -1t25.5 3q-6 35 -8.5 54.5t-12.5 48.5q-10 -27 -23 -57.5 t-13 -47.5z" />
<glyph unicode="&#xe7;" horiz-adv-x="739" d="M6 -289q8 18 26.5 39t40 40.5t42 32.5t32.5 15q6 -8 13.5 -24.5t21 -34t35 -30.5t55.5 -13q47 0 47 35q0 23 -20 46t-51 29q0 33 7 83.5t17 88.5q-76 23 -124 77.5t-74.5 128t-35.5 162.5t-9 181q0 53 8 126t27.5 151t52.5 154.5t83 137t116.5 98.5t156.5 38 q82 0 132 -34t79 -89t39 -124t10 -138q0 -31 -1 -59.5t-3 -57.5l-217 -8q-4 16 -3 45t-3 56.5t-15.5 48t-37.5 20.5q-31 0 -56.5 -40t-45 -94.5t-30 -106.5t-10.5 -77q0 -12 -1 -37.5t-1 -56.5q0 -35 2 -71.5t8.5 -67.5t17.5 -51.5t30 -22.5q29 -2 36 30t7 73q0 27 -1 51 t-1 45q23 0 58.5 -1t75.5 -5t80 -10.5t68 -16.5q4 -59 -5 -128t-34.5 -131t-66.5 -113.5t-101 -75.5q-2 -20 -5 -40t-1 -42q66 -29 87.5 -78t13.5 -103q-8 -57 -35 -100t-66 -71.5t-87 -43t-97 -14.5q-90 0 -170 44t-117 134z" />
<glyph unicode="&#xe8;" horiz-adv-x="741" d="M6 250q18 10 40 10t42 10q0 57 2 147.5t5 185.5t5 183t2 142q-23 2 -41 -2t-34 -2q-4 23 -4 50v56q0 45 1 93t1 91q-18 -2 34 5.5t152 19.5t235.5 24.5t280.5 20.5q4 0 5 -15.5t1 -19.5l2 -270q-6 -6 -20.5 -7t-49 -2t-94 -4t-155.5 -12q0 -23 -1 -40t1 -52q20 -2 46.5 2 t54.5 8.5t54.5 7.5t49.5 1q4 -18 6 -62.5t2 -93.5v-76v-50t2 -36q-35 -4 -99.5 -5t-115.5 -11v-238q27 4 62.5 9.5t74.5 10.5t75 8t64 3q12 -80 13 -170q0 -57 -7 -119q25 -2 -14 -7t-128 -14.5t-222 -23t-295 -33.5q-2 20 -7 59.5t-11.5 80.5t-10.5 78.5t-4 58.5zM184 1581 q45 45 103.5 81t118.5 54l176 -358q-6 -10 -36 -32t-63 -30q-25 20 -68.5 58.5t-89.5 79.5t-86 80.5t-55 66.5z" />
<glyph unicode="&#xe9;" horiz-adv-x="741" d="M6 250q18 10 40 10t42 10q0 57 2 147.5t5 185.5t5 183t2 142q-23 2 -41 -2t-34 -2q-4 23 -4 50v56q0 45 1 93t1 91q-18 -2 34 5.5t152 19.5t235.5 24.5t280.5 20.5q4 0 5 -15.5t1 -19.5l2 -270q-6 -6 -20.5 -7t-49 -2t-94 -4t-155.5 -12q0 -23 -1 -40t1 -52q20 -2 46.5 2 t54.5 8.5t54.5 7.5t49.5 1q4 -18 6 -62.5t2 -93.5v-76v-50t2 -36q-35 -4 -99.5 -5t-115.5 -11v-238q27 4 62.5 9.5t74.5 10.5t75 8t64 3q12 -80 13 -170q0 -57 -7 -119q25 -2 -14 -7t-128 -14.5t-222 -23t-295 -33.5q-2 20 -7 59.5t-11.5 80.5t-10.5 78.5t-4 58.5zM231 1366 l248 315q53 -31 103.5 -78t85.5 -100q-23 -23 -70 -53.5t-100.5 -61t-104.5 -58.5t-78 -44q-31 14 -55 42t-29 38z" />
<glyph unicode="&#xea;" horiz-adv-x="741" d="M6 250q18 10 40 10t42 10q0 57 2 147.5t5 185.5t5 183t2 142q-23 2 -41 -2t-34 -2q-4 23 -4 50v56q0 45 1 93t1 91q-18 -2 34 5.5t152 19.5t235.5 24.5t280.5 20.5q4 0 5 -15.5t1 -19.5l2 -270q-6 -6 -20.5 -7t-49 -2t-94 -4t-155.5 -12q0 -23 -1 -40t1 -52q20 -2 46.5 2 t54.5 8.5t54.5 7.5t49.5 1q4 -18 6 -62.5t2 -93.5v-76v-50t2 -36q-35 -4 -99.5 -5t-115.5 -11v-238q27 4 62.5 9.5t74.5 10.5t75 8t64 3q12 -80 13 -170q0 -57 -7 -119q25 -2 -14 -7t-128 -14.5t-222 -23t-295 -33.5q-2 20 -7 59.5t-11.5 80.5t-10.5 78.5t-4 58.5zM86 1364 q16 29 51 72t76 87t82 81.5t70 60.5q33 -23 77.5 -62.5t90 -86t84 -92.5t63.5 -81q-47 -4 -94 -20t-94 -20q-10 8 -26.5 28.5t-34 43t-34 44t-24.5 31.5q-12 -10 -27.5 -29.5t-31 -42t-30 -44t-24.5 -36.5q-51 12 -96 33t-78 33z" />
<glyph unicode="&#xeb;" horiz-adv-x="741" d="M6 250q18 10 40 10t42 10q0 57 2 147.5t5 185.5t5 183t2 142q-23 2 -41 -2t-34 -2q-4 23 -4 50v56q0 45 1 93t1 91q-18 -2 34 5.5t152 19.5t235.5 24.5t280.5 20.5q4 0 5 -15.5t1 -19.5l2 -270q-6 -6 -20.5 -7t-49 -2t-94 -4t-155.5 -12q0 -23 -1 -40t1 -52q20 -2 46.5 2 t54.5 8.5t54.5 7.5t49.5 1q4 -18 6 -62.5t2 -93.5v-76v-50t2 -36q-35 -4 -99.5 -5t-115.5 -11v-238q27 4 62.5 9.5t74.5 10.5t75 8t64 3q12 -80 13 -170q0 -57 -7 -119q25 -2 -14 -7t-128 -14.5t-222 -23t-295 -33.5q-2 20 -7 59.5t-11.5 80.5t-10.5 78.5t-4 58.5zM88 1436 q0 78 46 119.5t104 41.5q47 0 82.5 -29.5t35.5 -97.5q0 -37 -14 -68.5t-35.5 -53t-49.5 -33.5t-54 -12q-47 0 -81 32.5t-34 100.5zM412 1446q0 74 45 116t102 42q47 0 84 -29t37 -98q0 -37 -14.5 -68t-36 -53.5t-49 -34.5t-54.5 -12q-47 0 -80.5 33.5t-33.5 103.5z" />
<glyph unicode="&#xec;" horiz-adv-x="698" d="M7 1012.5q3 42.5 7 90.5t10.5 93t6.5 64q98 -8 270 -20.5t391 -16.5l-74 -318q-10 -43 -25 -125t-31.5 -196.5t-30 -262t-17.5 -319.5q-41 0 -92 1t-99.5 2t-86 1h-52.5l88 926l-62.5 5t-76.5 6t-72.5 6t-50.5 7q-6 14 -3 56.5zM156 1581q45 45 103 81t118 54l176 -358 q-6 -10 -35.5 -32t-62.5 -30q-25 20 -69 58.5t-90 79.5t-86 80.5t-54 66.5z" />
<glyph unicode="&#xed;" horiz-adv-x="698" d="M7 1012.5q3 42.5 7 90.5t10.5 93t6.5 64q98 -8 270 -20.5t391 -16.5l-74 -318q-10 -43 -25 -125t-31.5 -196.5t-30 -262t-17.5 -319.5q-41 0 -92 1t-99.5 2t-86 1h-52.5l88 926l-62.5 5t-76.5 6t-72.5 6t-50.5 7q-6 14 -3 56.5zM211 1352l248 315q53 -31 103 -78t85 -100 q-23 -23 -70 -53.5t-100 -61.5t-104 -58.5t-78 -43.5q-31 14 -55.5 41.5t-28.5 38.5z" />
<glyph unicode="&#xee;" horiz-adv-x="716" d="M7 1012.5q3 42.5 7 90.5t10.5 93t6.5 64q98 -8 270 -20.5t391 -16.5l-74 -318q-10 -43 -25 -125t-31.5 -196.5t-30 -262t-17.5 -319.5q-41 0 -92 1t-99.5 2t-86 1h-52.5l88 926l-62.5 5t-76.5 6t-72.5 6t-50.5 7q-6 14 -3 56.5zM117 1350q16 29 51 71.5t76 86.5t82 82 t69 61q33 -23 78 -63t90 -86t84 -92t64 -81q-47 -4 -94.5 -20.5t-94.5 -20.5q-10 8 -26.5 28.5t-34 43t-33.5 44t-25 32.5q-12 -10 -27.5 -30t-30.5 -42.5t-29.5 -44t-24.5 -35.5q-51 12 -96 32.5t-78 33.5z" />
<glyph unicode="&#xef;" horiz-adv-x="698" d="M7 1012.5q3 42.5 7 90.5t10.5 93t6.5 64q98 -8 270 -20.5t391 -16.5l-74 -318q-10 -43 -25 -125t-31.5 -196.5t-30 -262t-17.5 -319.5q-41 0 -92 1t-99.5 2t-86 1h-52.5l88 926l-62.5 5t-76.5 6t-72.5 6t-50.5 7q-6 14 -3 56.5zM88 1430q0 78 46 119.5t104 41.5 q47 0 82.5 -29.5t35.5 -97.5q0 -37 -14 -68.5t-35.5 -53t-49.5 -34t-54 -12.5q-47 0 -81 33t-34 101zM412 1440q0 74 45 115.5t102 41.5q47 0 84 -28.5t37 -98.5q0 -37 -14.5 -67.5t-36 -53t-49 -34.5t-54.5 -12q-47 0 -80.5 33.5t-33.5 103.5z" />
<glyph unicode="&#xf0;" horiz-adv-x="733" d="M6 434q0 80 23.5 140.5t62.5 101.5t89 61.5t106 20.5q16 0 32.5 -2t32.5 -6q-6 59 -26 104q-37 -27 -76 -51.5t-80 -50.5q-10 14 -28.5 40.5t-40 56.5t-43 59.5t-35.5 47.5q10 12 45.5 42t83.5 65q-59 41 -115 57q16 25 52 56.5t76 61.5t75.5 50.5t50.5 20.5 q31 -14 51 -33t49 -43q41 27 77 47t62 31q10 -12 32 -39t44.5 -58.5t41 -62.5t22.5 -49l-121 -90q31 -41 60.5 -98.5t54 -125t41 -141.5t20.5 -147q6 -98 -11.5 -190.5t-59.5 -164t-108.5 -115.5t-156.5 -46q-98 -2 -170 38.5t-120 107.5t-70.5 147.5t-22.5 156.5zM287 383 q0 -33 16 -61.5t49 -28.5q25 0 35 18.5t10 42.5q0 18 -5 37t-13 33t-20.5 23.5t-26.5 7.5q-23 -2 -34 -23.5t-11 -48.5z" />
<glyph unicode="&#xf1;" horiz-adv-x="1101" d="M6 4q8 135 13.5 208t8.5 113t4 59t3 44t5 70t9 137t15.5 243.5t23.5 389.5q47 2 97.5 3t103.5 1q80 0 159.5 -3t151.5 -9l55 -635q6 0 13.5 36.5t20.5 115.5t36 205t59 308q16 6 57.5 3t89.5 -11t93 -18.5t70 -18.5v-15t-8.5 -43t-25 -105.5t-47 -204t-76.5 -336 t-112 -500.5q-29 -4 -61.5 -4h-67.5q-47 0 -96 1t-98 -1q-18 82 -41 186.5t-43.5 202.5t-34.5 176t-14 107q-6 -51 -18.5 -148.5t-28 -205t-29.5 -207t-25 -152.5q-59 0 -125.5 2t-136.5 6zM340 1518q29 43 67.5 67.5t84.5 24.5q70 0 133 -66q20 -20 44.5 -33.5t49.5 -13.5 q23 0 45 13.5t39 48.5q10 0 25.5 -17.5t30.5 -40t27.5 -45.5t16.5 -31q-20 -53 -63 -75.5t-92 -22.5q-59 0 -105 25q-35 14 -61.5 26.5t-55.5 12.5q-41 0 -84 -35q-6 6 -22.5 29.5t-33.5 51t-31.5 51t-14.5 30.5z" />
<glyph unicode="&#xf2;" horiz-adv-x="737" d="M6 731q0 86 12.5 174t46 165t92 132t148.5 74q31 6 60 6q96 0 165.5 -61.5t113.5 -151.5t65.5 -193.5t21.5 -187.5q0 -49 -4 -116.5t-14.5 -141.5t-30.5 -147.5t-53 -135t-80 -103.5t-113 -50q-115 -16 -191.5 41t-124.5 150.5t-71.5 202t-34.5 194.5q-4 35 -6 71.5 t-2 77.5zM78 1587q45 45 103.5 81t117.5 54l176 -358q-6 -10 -35.5 -31.5t-62.5 -29.5q-25 20 -69 58t-90 79t-86 81t-54 66zM322 698q0 -49 6 -102t16 -96t25.5 -71t33.5 -30q29 -2 41.5 49.5t12.5 122.5q0 49 -5.5 101.5t-16.5 95.5t-26.5 70.5t-33.5 27.5q-29 2 -41 -48 t-12 -120z" />
<glyph unicode="&#xf3;" horiz-adv-x="737" d="M6 731q0 86 12.5 174t46 165t92 132t148.5 74q31 6 60 6q96 0 165.5 -61.5t113.5 -151.5t65.5 -193.5t21.5 -187.5q0 -49 -4 -116.5t-14.5 -141.5t-30.5 -147.5t-53 -135t-80 -103.5t-113 -50q-115 -16 -191.5 41t-124.5 150.5t-71.5 202t-34.5 194.5q-4 35 -6 71.5 t-2 77.5zM207 1386l248 316q53 -31 103 -78t85 -100q-23 -23 -70 -53.5t-100 -61.5t-104 -58.5t-78 -43.5q-31 14 -55.5 41.5t-28.5 37.5zM322 698q0 -49 6 -102t16 -96t25.5 -71t33.5 -30q29 -2 41.5 49.5t12.5 122.5q0 49 -5.5 101.5t-16.5 95.5t-26.5 70.5t-33.5 27.5 q-29 2 -41 -48t-12 -120z" />
<glyph unicode="&#xf4;" horiz-adv-x="737" d="M6 731q0 86 12.5 174t46 165t92 132t148.5 74q31 6 60 6q96 0 165.5 -61.5t113.5 -151.5t65.5 -193.5t21.5 -187.5q0 -49 -4 -116.5t-14.5 -141.5t-30.5 -147.5t-53 -135t-80 -103.5t-113 -50q-115 -16 -191.5 41t-124.5 150.5t-71.5 202t-34.5 194.5q-4 35 -6 71.5 t-2 77.5zM63 1364q16 29 51.5 72t76 87t81.5 81.5t70 60.5q33 -23 78 -62.5t90 -86t83.5 -92.5t63.5 -81q-47 -4 -94 -20t-94 -20q-10 8 -26.5 28.5t-34 43t-34 44t-24.5 31.5q-12 -10 -27.5 -29.5t-31 -42t-29.5 -44t-24 -36.5q-51 12 -96.5 33t-78.5 33zM322 698 q0 -49 6 -102t16 -96t25.5 -71t33.5 -30q29 -2 41.5 49.5t12.5 122.5q0 49 -5.5 101.5t-16.5 95.5t-26.5 70.5t-33.5 27.5q-29 2 -41 -48t-12 -120z" />
<glyph unicode="&#xf5;" horiz-adv-x="737" d="M6 731q0 86 12.5 174t46 165t92 132t148.5 74q31 6 60 6q96 0 165.5 -61.5t113.5 -151.5t65.5 -193.5t21.5 -187.5q0 -49 -4 -116.5t-14.5 -141.5t-30.5 -147.5t-53 -135t-80 -103.5t-113 -50q-115 -16 -191.5 41t-124.5 150.5t-71.5 202t-34.5 194.5q-4 35 -6 71.5 t-2 77.5zM78 1513q29 43 67.5 68t83.5 25q70 0 133 -66q20 -20 45 -33.5t50 -13.5q23 0 45 13.5t39 47.5q10 0 25.5 -17t30.5 -39.5t27.5 -45.5t16.5 -31q-20 -53 -63 -75.5t-93 -22.5q-59 0 -104 25q-35 14 -61.5 26t-55.5 12q-41 0 -84 -34q-6 6 -22.5 29.5t-34 51 t-31.5 51t-14 29.5zM322 698q0 -49 6 -102t16 -96t25.5 -71t33.5 -30q29 -2 41.5 49.5t12.5 122.5q0 49 -5.5 101.5t-16.5 95.5t-26.5 70.5t-33.5 27.5q-29 2 -41 -48t-12 -120z" />
<glyph unicode="&#xf6;" horiz-adv-x="737" d="M6 731q0 86 12.5 174t46 165t92 132t148.5 74q31 6 60 6q96 0 165.5 -61.5t113.5 -151.5t65.5 -193.5t21.5 -187.5q0 -49 -4 -116.5t-14.5 -141.5t-30.5 -147.5t-53 -135t-80 -103.5t-113 -50q-115 -16 -191.5 41t-124.5 150.5t-71.5 202t-34.5 194.5q-4 35 -6 71.5 t-2 77.5zM63 1436q0 78 46.5 119.5t103.5 41.5q47 0 83 -29.5t36 -97.5q0 -37 -14.5 -68.5t-36 -53t-49 -33.5t-54.5 -12q-47 0 -81 32.5t-34 100.5zM322 698q0 -49 6 -102t16 -96t25.5 -71t33.5 -30q29 -2 41.5 49.5t12.5 122.5q0 49 -5.5 101.5t-16.5 95.5t-26.5 70.5 t-33.5 27.5q-29 2 -41 -48t-12 -120zM387 1446q0 74 45 116t103 42q47 0 83.5 -29t36.5 -98q0 -37 -14 -68t-35.5 -53.5t-49.5 -34.5t-54 -12q-47 0 -81 33.5t-34 103.5z" />
<glyph unicode="&#xf7;" horiz-adv-x="628" d="M6 506v170v84q27 -2 105.5 -3t174 -2t187.5 -3t145 -4q2 -14 3.5 -41t1.5 -60q0 -43 -3.5 -86t-11.5 -65h-147q-111 0 -221.5 1t-233.5 9zM174 313q0 59 47 93t107 34q47 0 85 -23.5t38 -78.5q0 -29 -14.5 -53.5t-37 -42t-51.5 -27.5t-55 -10q-47 0 -83 26.5t-36 81.5z M199 918q0 59 47 92.5t106 33.5q47 0 85 -23.5t38 -78.5q0 -29 -14.5 -53.5t-37 -42t-51 -27.5t-55.5 -10q-47 0 -82.5 27t-35.5 82z" />
<glyph unicode="&#xf8;" horiz-adv-x="960" d="M6 53q31 59 61.5 118.5t65.5 119.5q-25 74 -39 150.5t-22 140.5q-4 35 -6.5 71.5t-2.5 77.5q0 86 12.5 174t46.5 165t92 132t148 74q31 6 60 6q72 0 127 -34t98 -91q29 47 54.5 92t52.5 92q14 -8 41.5 -24.5t57.5 -35.5t56.5 -40.5t38.5 -40.5q6 4 2 -9t-24.5 -49 t-59.5 -97.5t-102 -155.5q25 -109 24 -201q0 -49 -4 -116.5t-14 -141.5t-30.5 -147.5t-53.5 -135t-79.5 -103.5t-112.5 -50q-92 -14 -159 20.5t-114 100.5l-94 -150q-29 12 -68 36t-53 52zM365.5 746.5q-5.5 -31.5 1.5 -60.5l94 160q-17 20 -29 20q-14 0 -27.5 -17.5 t-23.5 -44t-15.5 -58zM436 416q12 -16 25 -17q23 -2 45 41t16 103z" />
<glyph unicode="&#xf9;" horiz-adv-x="886" d="M6 389q0 213 25.5 427t50.5 437q39 4 84 5.5t98 1.5h180q-25 -141 -41 -235.5t-28.5 -161t-20.5 -117t-12 -102.5t-5 -114.5t-1 -156.5q8 -31 20.5 -31t23.5 15.5t20.5 40t11.5 42.5q6 27 16 84.5t22.5 131t24.5 157.5t23.5 165t20.5 154.5t16 124.5h131q74 0 115.5 -1 t64 -3t29 -4t6.5 -4q-20 -123 -45 -280.5t-46.5 -322.5t-37 -321.5t-17.5 -275.5q-12 -12 -42.5 -22.5t-66.5 -17.5t-71 -11t-59 -4q-14 33 -13.5 48t-9.5 25q-18 -18 -48 -35.5t-62.5 -30.5t-65.5 -21.5t-59 -8.5q-76 0 -122 45t-71 110.5t-32 138.5t-7 128zM231 1581 q45 45 103.5 81t118.5 54l176 -358q-6 -10 -36 -32t-63 -30q-25 20 -68.5 58.5t-89.5 79.5t-86 80.5t-55 66.5z" />
<glyph unicode="&#xfa;" horiz-adv-x="860" d="M6 1204q68 16 150 24.5t188 22.5q2 -141 2 -235v-161t2 -115t8 -98t16.5 -111.5t26.5 -153.5q14 -29 26.5 -28t21 17.5t12.5 42t2 44.5q4 37 5 120.5t1 188.5q0 66 -1 134.5t-2 134t-4 123.5t-5 101q119 6 190 7q90 0 122 -5.5t32 -9.5q-2 -57 -3 -119.5t-1 -132.5 q0 -111 3 -229.5t10 -235t18.5 -226t27.5 -202.5q-10 -14 -39 -28.5t-62.5 -25.5t-67.5 -19.5t-58 -10.5q-18 29 -21.5 44.5t-13.5 25.5q-16 -20 -43 -38.5t-57.5 -32t-61.5 -23.5t-57 -12q-76 -10 -129.5 27.5t-88 96t-55 127t-30.5 121.5q-18 104 -27.5 209t-14.5 210.5 t-9.5 213t-12.5 217.5zM319 1384l248 316q53 -31 103.5 -78t85.5 -100q-23 -23 -70 -53.5t-100.5 -61.5t-104.5 -58.5t-78 -43.5q-31 14 -55 41.5t-29 37.5z" />
<glyph unicode="&#xfb;" horiz-adv-x="886" d="M6 389q0 213 25.5 427t50.5 437q39 4 84 5.5t98 1.5h180q-25 -141 -41 -235.5t-28.5 -161t-20.5 -117t-12 -102.5t-5 -114.5t-1 -156.5q8 -31 20.5 -31t23.5 15.5t20.5 40t11.5 42.5q6 27 16 84.5t22.5 131t24.5 157.5t23.5 165t20.5 154.5t16 124.5h131q74 0 115.5 -1 t64 -3t29 -4t6.5 -4q-20 -123 -45 -280.5t-46.5 -322.5t-37 -321.5t-17.5 -275.5q-12 -12 -42.5 -22.5t-66.5 -17.5t-71 -11t-59 -4q-14 33 -13.5 48t-9.5 25q-18 -18 -48 -35.5t-62.5 -30.5t-65.5 -21.5t-59 -8.5q-76 0 -122 45t-71 110.5t-32 138.5t-7 128zM205 1366 q16 29 51 72t76 87t82 82t69 60q33 -23 78 -62.5t90 -85.5t84 -92t64 -81q-47 -4 -94.5 -20.5t-94.5 -20.5q-10 8 -26.5 28.5t-34 43t-33.5 44t-24 31.5q-12 -10 -27.5 -29.5t-31 -42t-30 -44t-24.5 -36.5q-51 12 -96 33t-78 33z" />
<glyph unicode="&#xfc;" horiz-adv-x="886" d="M6 389q0 213 25.5 427t50.5 437q39 4 84 5.5t98 1.5h180q-25 -141 -41 -235.5t-28.5 -161t-20.5 -117t-12 -102.5t-5 -114.5t-1 -156.5q8 -31 20.5 -31t23.5 15.5t20.5 40t11.5 42.5q6 27 16 84.5t22.5 131t24.5 157.5t23.5 165t20.5 154.5t16 124.5h131q74 0 115.5 -1 t64 -3t29 -4t6.5 -4q-20 -123 -45 -280.5t-46.5 -322.5t-37 -321.5t-17.5 -275.5q-12 -12 -42.5 -22.5t-66.5 -17.5t-71 -11t-59 -4q-14 33 -13.5 48t-9.5 25q-18 -18 -48 -35.5t-62.5 -30.5t-65.5 -21.5t-59 -8.5q-76 0 -122 45t-71 110.5t-32 138.5t-7 128zM229 1423 q0 78 46.5 120t103.5 42q47 0 83 -29.5t36 -97.5q0 -37 -14.5 -68.5t-36 -53t-49 -34t-54.5 -12.5q-47 0 -81 32.5t-34 100.5zM553 1434q0 74 45 115.5t102 41.5q47 0 84 -28.5t37 -98.5q0 -37 -14 -67.5t-35.5 -53t-49.5 -35t-54 -12.5q-47 0 -81 34t-34 104z" />
<glyph unicode="&#xfd;" horiz-adv-x="1054" d="M8 1100q6 12 44 45t86 68.5t92 64.5t61 33q20 -31 48 -74t59.5 -89t68.5 -91t74 -78q-8 -27 50 67.5t179 272.5q25 -10 104.5 -44t174.5 -93q-16 -39 -67.5 -113t-110 -156t-107.5 -155.5t-59 -112.5q-8 -180 -13.5 -296t-7.5 -182.5t-2 -94v-33.5q-16 -12 -54 -18.5 t-83 -7.5t-86 -2t-64 -3q-8 205 -13 324t-10 183.5t-8.5 90t-5.5 43.5q-131 162 -201.5 251t-104.5 131t-39 52.5t-5 16.5zM432 1352l248 315q53 -31 103.5 -78t84.5 -100q-23 -23 -69.5 -53.5t-100 -61.5t-104.5 -58.5t-78 -43.5q-31 14 -55.5 41.5t-28.5 38.5z" />
<glyph unicode="&#xfe;" horiz-adv-x="772" d="M6 1247q16 2 66.5 9.5t108 13.5t109.5 11t72 5q6 12 3 -61.5t-5 -257.5q86 2 159 -32t127 -89t86 -125t32 -141q0 -70 -25.5 -144t-80 -132t-138.5 -93t-196 -25l-21 -290q-14 -2 -48 -2h-73h-61.5t-46.5 4q-18 340 -34.5 685t-33.5 664zM342 463q35 -14 68 -14 q55 0 81.5 37.5t24.5 74.5q-2 49 -49 82t-117 21q-2 -27 -3 -48.5t-1 -45t-1 -49t-3 -58.5z" />
<glyph unicode="&#xff;" horiz-adv-x="1054" d="M8 1100q6 12 44 45t86 68.5t92 64.5t61 33q20 -31 48 -74t59.5 -89t68.5 -91t74 -78q-8 -27 50 67.5t179 272.5q25 -10 104.5 -44t174.5 -93q-16 -39 -67.5 -113t-110 -156t-107.5 -155.5t-59 -112.5q-8 -180 -13.5 -296t-7.5 -182.5t-2 -94v-33.5q-16 -12 -54 -18.5 t-83 -7.5t-86 -2t-64 -3q-8 205 -13 324t-10 183.5t-8.5 90t-5.5 43.5q-131 162 -201.5 251t-104.5 131t-39 52.5t-5 16.5zM236 1450q0 78 46 120t103 42q47 0 83 -30t36 -97q0 -37 -14.5 -69t-36 -53.5t-49 -33.5t-54.5 -12q-47 0 -80.5 32.5t-33.5 100.5zM559 1460 q0 74 45 116t103 42q47 0 83.5 -28.5t36.5 -98.5q0 -37 -14 -67.5t-35.5 -53t-49.5 -35t-54 -12.5q-47 0 -81 33.5t-34 103.5z" />
<glyph unicode="&#x152;" horiz-adv-x="1208" d="M8 629q-4 90 8.5 200.5t49 211t105.5 172t181 85.5q94 10 162 -30.5t113 -112.5q4 29 6 55.5t6 53.5q-16 0 4.5 3t73.5 7t137 8t195 4h71.5t77.5 -2q2 0 3 -9t-1 -41t-6 -92.5t-12 -162.5q-6 -6 -24.5 -8t-57.5 -3t-103.5 -2t-160.5 -1q-2 -23 -4.5 -40.5t-4.5 -52.5 q20 -4 58.5 0.5t78.5 9.5t77.5 8t60.5 -1q4 -18 2 -62.5t-7 -93.5t-8.5 -94t-3.5 -68q-16 0 -53 -1t-79 -2t-83 -4t-67 -5l-19 -237q27 2 74 7t97.5 9t97.5 6t75 0q4 -68 -3 -139.5t-13 -149.5q47 -6 -91 -11t-468 -19l-4 73q-35 -39 -76 -61.5t-92 -26.5 q-78 -4 -135.5 23.5t-97 78t-66.5 116t-42 135t-22.5 139t-9.5 127.5zM319 649q0 -43 4.5 -84t11.5 -72.5t18.5 -53t27.5 -23.5t29.5 17.5t22.5 53t13.5 77.5t4.5 91q0 43 -4.5 83t-11.5 72t-19.5 52.5t-26.5 22.5q-18 2 -30.5 -17.5t-21.5 -53.5t-13.5 -77t-4.5 -88z" />
<glyph unicode="&#x153;" horiz-adv-x="1204" d="M6 731q0 86 12.5 174t46 165t92 132t148.5 74q92 18 163 -17.5t122 -103.5q2 29 2 55.5v53.5q-18 -2 17.5 5t116.5 18t199.5 23.5t264.5 20.5q2 0 3 -9t2 -41t2 -92.5t1 -162.5q-12 -12 -102 -19.5t-283 -23.5q0 -23 -1 -40t1 -52q20 -2 57 5t77 14.5t77 13.5t59 4 q4 -18 6.5 -62.5t2.5 -93.5v-76v-50t2 -36q-16 -2 -53 -5t-79 -8t-83 -10t-66 -12v-237q27 4 73 12t97 16.5t97 14.5t75 6q4 -35 6 -69.5t2 -69.5q0 -37 -1 -74t-1 -76q47 -4 -90 -19.5t-465 -55.5l-10 73q-31 -41 -70 -67.5t-90 -34.5q-115 -16 -191.5 41t-124.5 150.5 t-71.5 202t-34.5 194.5q-4 35 -6 71.5t-2 77.5zM322 698q0 -49 6 -102t16 -96t25.5 -71t33.5 -30q29 -2 41.5 49.5t12.5 122.5q0 49 -5.5 101.5t-16.5 95.5t-26.5 70.5t-33.5 27.5q-29 2 -41 -48t-12 -120z" />
<glyph unicode="&#x178;" horiz-adv-x="1054" d="M8 1100q6 12 44 45t86 68.5t92 64.5t61 33q20 -31 48 -74t59.5 -89t68.5 -91t74 -78q-8 -27 50 67.5t179 272.5q25 -10 104.5 -44t174.5 -93q-16 -39 -67.5 -113t-110 -156t-107.5 -155.5t-59 -112.5q-8 -180 -13.5 -296t-7.5 -182.5t-2 -94v-33.5q-16 -12 -54 -18.5 t-83 -7.5t-86 -2t-64 -3q-8 205 -13 324t-10 183.5t-8.5 90t-5.5 43.5q-131 162 -201.5 251t-104.5 131t-39 52.5t-5 16.5zM233 1444q0 78 46.5 120t103.5 42q47 0 83 -30t36 -97q0 -37 -14.5 -69t-36 -53.5t-49 -33.5t-54.5 -12q-47 0 -81 32.5t-34 100.5zM557 1454 q0 74 45 116t103 42q47 0 83.5 -29t36.5 -98q0 -37 -14 -68t-35.5 -53.5t-49.5 -34.5t-54 -12q-47 0 -81 33.5t-34 103.5z" />
<glyph unicode="&#x2c6;" horiz-adv-x="606" d="M6 1364q16 29 51 72t76 87t82 81.5t70 60.5q33 -23 78 -62.5t90 -86t83.5 -92.5t63.5 -81q-47 -4 -94 -20t-94 -20q-10 8 -26.5 28.5t-34 43t-34 44t-24.5 31.5q-12 -10 -27.5 -29.5t-31 -42t-30 -44t-24.5 -36.5q-51 12 -96 33t-78 33z" />
<glyph unicode="&#x2dc;" horiz-adv-x="575" d="M6 1513q29 43 68 68t84 25q70 0 133 -66q20 -20 44.5 -33.5t49.5 -13.5q23 0 45.5 13.5t38.5 47.5q10 0 25.5 -17t31 -39.5t27.5 -45.5t16 -31q-20 -53 -63 -75.5t-92 -22.5q-59 0 -105 25q-35 14 -61.5 26t-54.5 12q-41 0 -84 -34q-6 6 -22.5 29.5t-34 51t-32 51 t-14.5 29.5z" />
<glyph unicode="&#x2000;" horiz-adv-x="861" />
<glyph unicode="&#x2001;" horiz-adv-x="1722" />
<glyph unicode="&#x2002;" horiz-adv-x="861" />
<glyph unicode="&#x2003;" horiz-adv-x="1722" />
<glyph unicode="&#x2004;" horiz-adv-x="574" />
<glyph unicode="&#x2005;" horiz-adv-x="430" />
<glyph unicode="&#x2006;" horiz-adv-x="287" />
<glyph unicode="&#x2007;" horiz-adv-x="287" />
<glyph unicode="&#x2008;" horiz-adv-x="215" />
<glyph unicode="&#x2009;" horiz-adv-x="344" />
<glyph unicode="&#x200a;" horiz-adv-x="95" />
<glyph unicode="&#x2010;" horiz-adv-x="636" d="M6 496v170v84q25 4 106 8t177 4q98 0 191 -5t147 -18q2 -14 3 -40.5t1 -59.5q0 -43 -3 -86t-12 -66h-237q-90 0 -182.5 1t-190.5 8z" />
<glyph unicode="&#x2011;" horiz-adv-x="636" d="M6 496v170v84q25 4 106 8t177 4q98 0 191 -5t147 -18q2 -14 3 -40.5t1 -59.5q0 -43 -3 -86t-12 -66h-237q-90 0 -182.5 1t-190.5 8z" />
<glyph unicode="&#x2012;" horiz-adv-x="636" d="M6 496v170v84q25 4 106 8t177 4q98 0 191 -5t147 -18q2 -14 3 -40.5t1 -59.5q0 -43 -3 -86t-12 -66h-237q-90 0 -182.5 1t-190.5 8z" />
<glyph unicode="&#x2013;" horiz-adv-x="872" d="M6 496v168v84q16 2 54 4t90.5 4t115 3t129.5 1q68 0 135.5 -1t129 -4t113.5 -7.5t87 -10.5q2 -14 4 -42.5t2 -63.5q0 -41 -4 -82t-14 -62h-330q-125 0 -251 1t-261 8z" />
<glyph unicode="&#x2014;" horiz-adv-x="1101" d="M6 496v176v88q20 2 69.5 4t115 4t145.5 3t166 1q84 0 170 -1t162.5 -4t142 -7t110.5 -10q4 -16 6.5 -47t2.5 -68q0 -43 -5.5 -84t-17.5 -64h-418q-158 0 -317.5 1t-331.5 8z" />
<glyph unicode="&#x2018;" horiz-adv-x="262" d="M6 1182q2 23 18.5 76t38 112.5t42 115.5t32.5 87q43 -8 63.5 -10t30 -2h10.5t1 -5l14 -438q-27 2 -61.5 9.5t-70.5 17.5t-67.5 20.5t-50.5 16.5z" />
<glyph unicode="&#x2019;" horiz-adv-x="274" d="M8 1452q-2 55 2 78q23 2 57.5 3t73.5 1q35 0 69 -2t58 -6l-129 -418q-2 -4 -3 -4t-9 2t-29.5 6t-64.5 8q-4 31 -9.5 91.5t-9.5 123t-6 117.5z" />
<glyph unicode="&#x201a;" horiz-adv-x="274" d="M8 172q-2 55 2 78q23 2 57.5 3t73.5 1q35 0 69 -2t58 -6l-129 -418q-2 -4 -3 -4t-9 2t-29.5 6t-64.5 8q-4 31 -9.5 91.5t-9.5 123t-6 117.5z" />
<glyph unicode="&#x201c;" horiz-adv-x="550" d="M6 1182q2 23 18.5 76t38 112.5t42 115.5t32.5 87q43 -8 63.5 -10t30 -2h10.5t1 -5l14 -438q-27 2 -61.5 9.5t-70.5 17.5t-67.5 20.5t-50.5 16.5zM293 1169q2 23 18.5 75t38 111.5t42 116t32.5 87.5q43 -8 63.5 -10.5t29.5 -2.5h10t3 -4l15 -438q-27 2 -63 10t-71.5 18.5 t-67.5 20.5t-50 16z" />
<glyph unicode="&#x201d;" horiz-adv-x="567" d="M8 1452q-2 55 2 78q23 2 57.5 3t73.5 1q35 0 69 -2t58 -6l-129 -418q-2 -4 -3 -4t-9 2t-29.5 6t-64.5 8q-4 31 -9.5 91.5t-9.5 123t-6 117.5zM301 1450q-2 55 2 78q23 2 57.5 3t73.5 1q35 0 69 -2t58 -6l-129 -418q-2 -4 -3 -4t-9 2t-29.5 6t-64.5 8q-4 31 -9.5 91.5 t-9.5 123t-6 117.5z" />
<glyph unicode="&#x201e;" horiz-adv-x="610" d="M8 172q-2 55 2 78q23 2 57.5 3t73.5 1q35 0 69 -2t58 -6l-129 -418q-2 -4 -3 -4t-9 2t-29.5 6t-64.5 8q-4 31 -9.5 91.5t-9.5 123t-6 117.5zM344 168q-2 55 2 78q23 2 57.5 3t73.5 1q35 0 69 -2t58 -6l-129 -418q-2 -4 -3 -4t-9 2t-29.5 6t-64.5 8q-4 31 -9.5 91.5 t-9.5 123t-6 117.5z" />
<glyph unicode="&#x2022;" horiz-adv-x="491" d="M6 616q0 68 22.5 122.5t59.5 92t85 57t99 19.5q41 0 80 -13t69 -41t47 -73t17 -108q0 -68 -24.5 -123t-63.5 -96t-88 -63.5t-96 -22.5q-84 0 -145.5 61t-61.5 188z" />
<glyph unicode="&#x2026;" horiz-adv-x="1062" d="M6 94q0 59 47 93t107 34q47 0 85 -23.5t38 -78.5q0 -29 -14.5 -53.5t-37 -42t-51 -27.5t-55.5 -10q-47 0 -83 26.5t-36 81.5zM393 94q0 59 47 93t107 34q47 0 85 -23.5t38 -78.5q0 -29 -14.5 -53.5t-37 -42t-51 -27.5t-55.5 -10q-47 0 -83 26.5t-36 81.5zM780 94 q0 59 47 93t107 34q47 0 85 -23.5t38 -78.5q0 -29 -14.5 -53.5t-37 -42t-51 -27.5t-55.5 -10q-47 0 -83 26.5t-36 81.5z" />
<glyph unicode="&#x202f;" horiz-adv-x="344" />
<glyph unicode="&#x2039;" horiz-adv-x="614" d="M6 610q39 49 113 127t157.5 156t164.5 142.5t137 88.5q4 -35 9 -66.5t9 -66.5t7 -74.5t5 -91.5q-20 -25 -56 -52.5t-75 -55t-73.5 -55t-53.5 -52.5q20 -18 53 -53t67 -75t65.5 -77.5t48.5 -58.5q-8 -86 -17.5 -159.5t-19.5 -161.5q-59 45 -137 117.5t-155 154.5 t-143.5 164t-105.5 149z" />
<glyph unicode="&#x203a;" horiz-adv-x="614" d="M6 825q2 51 5 91t7.5 75t9.5 67t9 66q55 -25 136 -89t165 -142t157.5 -156t112.5 -127q-39 -68 -105.5 -149.5t-143 -163.5t-154.5 -154.5t-137 -117.5q-10 88 -19.5 161.5t-17.5 159.5q16 20 48 58t65.5 78t66.5 75t53 53q-18 25 -54 52.5t-74 55t-73.5 55.5t-56.5 52z " />
<glyph unicode="&#x205f;" horiz-adv-x="430" />
<glyph unicode="&#x20ac;" horiz-adv-x="829" d="M6 319q2 47 1 86t-1 76v40t2 40q16 2 38 3t43.5 1t39.5 1t27 1q0 4 1 17.5t-3 23.5l-134 -8q0 8 -1 26.5t-2 43t-2 51.5t-1 51q0 29 1 48.5t5 25.5l148 -2q31 86 77 163.5t111.5 138t153.5 96.5t201 36q27 0 55.5 -2t56.5 -6q-4 -12 -12 -51t-20.5 -84t-24.5 -85t-21 -55 q-47 8 -94 3t-86 -23.5t-66.5 -51t-35.5 -79.5l174 -2l-6 -213q-6 -4 -28.5 -5t-50.5 -2t-56.5 -3.5t-46.5 -4.5v-39q4 0 30.5 -1t57 -1t57.5 -1t31 -1q-2 -18 0 -58t2 -81v-41t-4 -33q-53 -8 -102.5 -8t-84.5 -4q0 -43 18.5 -76.5t45 -56.5t58.5 -34t63 -11q51 0 75 29 q18 -31 33.5 -72t28 -79t20.5 -67.5t13 -37.5q-43 -25 -90.5 -36t-96.5 -11q-84 0 -164 31.5t-144.5 89t-104 138t-39.5 177.5z" />
<glyph unicode="&#x2122;" horiz-adv-x="1095" d="M7 1213.5q-1 21.5 3 25.5q63 0 155.5 2t192 5t197.5 6t172 8q18 -23 37.5 -66t40.5 -70q8 12 17 31t19.5 40.5t19.5 43t16 35.5l194 20q2 -55 5 -124.5t6 -145.5t5.5 -149.5t2.5 -135.5q-41 -4 -91.5 -7t-101.5 -5q-4 2 -4 8v27.5t1 65.5t1 122q-16 -12 -37.5 -39.5 t-46.5 -48.5q-29 23 -62.5 61t-56.5 64q-6 -92 -6 -192v-52.5t2 -52.5q-8 -2 -33.5 -4t-55.5 -4t-57.5 -3t-37.5 1q0 113 -2 212t-4 175l-140 -2q-4 -12 -5 -64.5t-3 -114t-4 -119.5t-6 -85q-37 -4 -89 -12t-91 -6q-4 53 -5 111.5t-2 113.5t-1 100t-2 74l-142 -8v80 q0 57 -1 78.5z" />
<glyph unicode="&#x25fc;" horiz-adv-x="1290" d="M0 0v1290h1290v-1290h-1290z" />
<glyph unicode="&#xfb01;" horiz-adv-x="1103" d="M6 1198q12 2 27.5 4t46.5 5t85 7.5t144 10.5t222.5 13t320.5 17q4 -6 6 -27.5t2 -51.5q0 -33 -2 -70t-5 -71t-6 -57.5t-7 -27.5q-43 -6 -94.5 -9t-103.5 -5t-102.5 -4t-93.5 -6q-4 -29 -4 -54.5t4 -52.5q143 2 305 17.5t341 15.5q8 6 5 -27.5t-16.5 -130t-38 -268.5 t-61.5 -438q-16 -2 -54 -2h-81q-41 0 -80 2t-57 6q-4 158 -5.5 294t-1.5 271l-251 -20l8 -564q-20 -2 -58.5 -2h-85.5h-92t-78 -2l-30 916q-2 6 -11.5 6t-23.5 -2t-28.5 -3t-24.5 5q-4 18 -6.5 59t-4.5 89.5t-5 91.5t-5 65z" />
<glyph unicode="&#xfb02;" horiz-adv-x="1433" d="M6 1198q123 14 248 25.5t260 19.5t283.5 13.5t316.5 5.5q4 -209 7 -422t18 -445q35 2 109.5 11.5t146.5 17.5q10 -16 17 -61.5t10 -95.5t4 -96t-1 -65q-166 -37 -271 -54t-168.5 -25.5t-96.5 -11.5t-53 -7q-10 96 -18.5 208t-16.5 231.5t-14.5 245.5t-8.5 249 q-82 -6 -171 -8t-161 -8q-4 -29 -4 -54.5t4 -52.5q14 -2 54.5 1t83.5 7t80.5 6.5t50.5 0.5q6 -59 10 -123t4 -142l-278 -30l8 -564q-20 -2 -58.5 -2h-85.5h-92t-78 -2l-30 916q-2 6 -11.5 6t-23.5 -2t-28.5 -3t-24.5 5q-4 18 -6.5 59t-4.5 89.5t-5 91.5t-5 65z" />
</font>
</defs>
</svg>
